<svg id="visual" viewBox="0 0 960 540" width="960" height="540" xmlns="http://www.w3.org/2000/svg" xmlns:xlink="http://www.w3.org/1999/xlink" version="1.1"><g stroke-width="1" stroke-linejoin="bevel"><path d="M413.7 249L417.7 199L352 201Z" fill="#143851" stroke="#143851"></path><path d="M352 201L328 255L413.7 249Z" fill="#1a4865" stroke="#1a4865"></path><path d="M417.7 199L403.7 124L352 201Z" fill="#256c90" stroke="#256c90"></path><path d="M328 255L450.7 336L413.7 249Z" fill="#1d5170" stroke="#1d5170"></path><path d="M413.7 249L552.3 256L417.7 199Z" fill="#17405b" stroke="#17405b"></path><path d="M417.7 199L544.3 91L403.7 124Z" fill="#1a4865" stroke="#1a4865"></path><path d="M352 201L252.3 253L328 255Z" fill="#226385" stroke="#226385"></path><path d="M328 255L311 362L450.7 336Z" fill="#297ea6" stroke="#297ea6"></path><path d="M209.3 110L252.3 253L352 201Z" fill="#113047" stroke="#113047"></path><path d="M252.3 253L311 362L328 255Z" fill="#226385" stroke="#226385"></path><path d="M403.7 124L331 61L352 201Z" fill="#205a7b" stroke="#205a7b"></path><path d="M450.7 336L552.3 256L413.7 249Z" fill="#226385" stroke="#226385"></path><path d="M552.3 256L559.3 184L417.7 199Z" fill="#1d5170" stroke="#1d5170"></path><path d="M403.7 124L402.7 0L331 61Z" fill="#143851" stroke="#143851"></path><path d="M223.3 468L337 420L311 362Z" fill="#0d283d" stroke="#0d283d"></path><path d="M311 362L337 420L450.7 336Z" fill="#17405b" stroke="#17405b"></path><path d="M559.3 184L544.3 91L417.7 199Z" fill="#1a4865" stroke="#1a4865"></path><path d="M331 61L209.3 110L352 201Z" fill="#113047" stroke="#113047"></path><path d="M209.3 110L181.3 152L252.3 253Z" fill="#113047" stroke="#113047"></path><path d="M252.3 253L180.3 339L311 362Z" fill="#143851" stroke="#143851"></path><path d="M552.3 256L605 235L559.3 184Z" fill="#205a7b" stroke="#205a7b"></path><path d="M559.3 184L604 59L544.3 91Z" fill="#297ea6" stroke="#297ea6"></path><path d="M657 392L605 235L552.3 256Z" fill="#1d5170" stroke="#1d5170"></path><path d="M542.3 394L552.3 256L450.7 336Z" fill="#143851" stroke="#143851"></path><path d="M605 235L607 204L559.3 184Z" fill="#226385" stroke="#226385"></path><path d="M522.3 0L402.7 0L403.7 124Z" fill="#297ea6" stroke="#297ea6"></path><path d="M331 61L201.3 0L209.3 110Z" fill="#27759b" stroke="#27759b"></path><path d="M402.7 0L328 0L331 61Z" fill="#113047" stroke="#113047"></path><path d="M529.3 476L542.3 394L450.7 336Z" fill="#226385" stroke="#226385"></path><path d="M121.7 213L180.3 339L252.3 253Z" fill="#0d283d" stroke="#0d283d"></path><path d="M604 59L522.3 0L544.3 91Z" fill="#113047" stroke="#113047"></path><path d="M544.3 91L522.3 0L403.7 124Z" fill="#143851" stroke="#143851"></path><path d="M137.7 89L121.7 213L181.3 152Z" fill="#226385" stroke="#226385"></path><path d="M181.3 152L121.7 213L252.3 253Z" fill="#17405b" stroke="#17405b"></path><path d="M288 540L387.7 487L337 420Z" fill="#205a7b" stroke="#205a7b"></path><path d="M337 420L387.7 487L450.7 336Z" fill="#226385" stroke="#226385"></path><path d="M607 204L604 59L559.3 184Z" fill="#0d283d" stroke="#0d283d"></path><path d="M201.3 0L137.7 89L209.3 110Z" fill="#297ea6" stroke="#297ea6"></path><path d="M209.3 110L137.7 89L181.3 152Z" fill="#297ea6" stroke="#297ea6"></path><path d="M328 0L201.3 0L331 61Z" fill="#0d283d" stroke="#0d283d"></path><path d="M387.7 487L529.3 476L450.7 336Z" fill="#27759b" stroke="#27759b"></path><path d="M542.3 394L657 392L552.3 256Z" fill="#297ea6" stroke="#297ea6"></path><path d="M118.7 387L223.3 468L180.3 339Z" fill="#143851" stroke="#143851"></path><path d="M180.3 339L223.3 468L311 362Z" fill="#205a7b" stroke="#205a7b"></path><path d="M0 240L98.7 302L121.7 213Z" fill="#27759b" stroke="#27759b"></path><path d="M121.7 213L98.7 302L180.3 339Z" fill="#143851" stroke="#143851"></path><path d="M98.7 302L118.7 387L180.3 339Z" fill="#0d283d" stroke="#0d283d"></path><path d="M529.3 476L627 427L542.3 394Z" fill="#256c90" stroke="#256c90"></path><path d="M605 235L727.7 181L607 204Z" fill="#113047" stroke="#113047"></path><path d="M710.7 76L643 0L604 59Z" fill="#297ea6" stroke="#297ea6"></path><path d="M627 427L657 392L542.3 394Z" fill="#256c90" stroke="#256c90"></path><path d="M288 540L445.7 540L387.7 487Z" fill="#143851" stroke="#143851"></path><path d="M387.7 487L445.7 540L529.3 476Z" fill="#1d5170" stroke="#1d5170"></path><path d="M529.3 476L566.3 540L627 427Z" fill="#0d283d" stroke="#0d283d"></path><path d="M213.3 540L288 540L223.3 468Z" fill="#0d283d" stroke="#0d283d"></path><path d="M223.3 468L288 540L337 420Z" fill="#113047" stroke="#113047"></path><path d="M710.7 76L604 59L607 204Z" fill="#143851" stroke="#143851"></path><path d="M604 59L643 0L522.3 0Z" fill="#143851" stroke="#143851"></path><path d="M201.3 0L121.7 0L137.7 89Z" fill="#1a4865" stroke="#1a4865"></path><path d="M0 174L0 240L121.7 213Z" fill="#226385" stroke="#226385"></path><path d="M741.7 245L727.7 181L605 235Z" fill="#0d283d" stroke="#0d283d"></path><path d="M727.7 181L710.7 76L607 204Z" fill="#226385" stroke="#226385"></path><path d="M657 392L741.7 245L605 235Z" fill="#226385" stroke="#226385"></path><path d="M864.3 93L774.7 0L710.7 76Z" fill="#27759b" stroke="#27759b"></path><path d="M97.7 540L213.3 540L223.3 468Z" fill="#27759b" stroke="#27759b"></path><path d="M98.7 302L76.7 416L118.7 387Z" fill="#205a7b" stroke="#205a7b"></path><path d="M118.7 387L76.7 416L223.3 468Z" fill="#27759b" stroke="#27759b"></path><path d="M0 321L76.7 416L98.7 302Z" fill="#205a7b" stroke="#205a7b"></path><path d="M627 427L722.7 418L657 392Z" fill="#1d5170" stroke="#1d5170"></path><path d="M445.7 540L566.3 540L529.3 476Z" fill="#1d5170" stroke="#1d5170"></path><path d="M0 174L121.7 213L137.7 89Z" fill="#297ea6" stroke="#297ea6"></path><path d="M0 83L0 174L137.7 89Z" fill="#226385" stroke="#226385"></path><path d="M710.7 540L722.7 418L627 427Z" fill="#226385" stroke="#226385"></path><path d="M657 392L778.7 358L741.7 245Z" fill="#256c90" stroke="#256c90"></path><path d="M566.3 540L624 540L627 427Z" fill="#256c90" stroke="#256c90"></path><path d="M0 240L0 321L98.7 302Z" fill="#27759b" stroke="#27759b"></path><path d="M121.7 0L0 83L137.7 89Z" fill="#0d283d" stroke="#0d283d"></path><path d="M890.3 470L778.7 358L722.7 418Z" fill="#113047" stroke="#113047"></path><path d="M722.7 418L778.7 358L657 392Z" fill="#226385" stroke="#226385"></path><path d="M741.7 245L830.3 273L727.7 181Z" fill="#297ea6" stroke="#297ea6"></path><path d="M76.7 416L97.7 540L223.3 468Z" fill="#27759b" stroke="#27759b"></path><path d="M0 540L97.7 540L76.7 416Z" fill="#1d5170" stroke="#1d5170"></path><path d="M0 321L0 412L76.7 416Z" fill="#0d283d" stroke="#0d283d"></path><path d="M121.7 0L0 0L0 83Z" fill="#226385" stroke="#226385"></path><path d="M778.7 358L830.3 273L741.7 245Z" fill="#0d283d" stroke="#0d283d"></path><path d="M864.3 93L710.7 76L727.7 181Z" fill="#143851" stroke="#143851"></path><path d="M710.7 76L774.7 0L643 0Z" fill="#205a7b" stroke="#205a7b"></path><path d="M624 540L710.7 540L627 427Z" fill="#0d283d" stroke="#0d283d"></path><path d="M778.7 358L857.3 327L830.3 273Z" fill="#143851" stroke="#143851"></path><path d="M890.3 470L857.3 327L778.7 358Z" fill="#0d283d" stroke="#0d283d"></path><path d="M889.3 170L864.3 93L727.7 181Z" fill="#256c90" stroke="#256c90"></path><path d="M889.3 170L727.7 181L830.3 273Z" fill="#17405b" stroke="#17405b"></path><path d="M0 412L0 540L76.7 416Z" fill="#113047" stroke="#113047"></path><path d="M960 295L889.3 170L830.3 273Z" fill="#226385" stroke="#226385"></path><path d="M864.3 93L849.3 0L774.7 0Z" fill="#143851" stroke="#143851"></path><path d="M960 0L849.3 0L864.3 93Z" fill="#1a4865" stroke="#1a4865"></path><path d="M858.3 540L890.3 470L722.7 418Z" fill="#1a4865" stroke="#1a4865"></path><path d="M857.3 327L960 295L830.3 273Z" fill="#205a7b" stroke="#205a7b"></path><path d="M710.7 540L858.3 540L722.7 418Z" fill="#27759b" stroke="#27759b"></path><path d="M960 343L960 295L857.3 327Z" fill="#226385" stroke="#226385"></path><path d="M889.3 170L960 145L864.3 93Z" fill="#113047" stroke="#113047"></path><path d="M960 295L960 145L889.3 170Z" fill="#0d283d" stroke="#0d283d"></path><path d="M960 420L960 343L857.3 327Z" fill="#256c90" stroke="#256c90"></path><path d="M960 420L857.3 327L890.3 470Z" fill="#0d283d" stroke="#0d283d"></path><path d="M960 145L960 95L864.3 93Z" fill="#226385" stroke="#226385"></path><path d="M960 540L960 420L890.3 470Z" fill="#205a7b" stroke="#205a7b"></path><path d="M960 95L960 0L864.3 93Z" fill="#297ea6" stroke="#297ea6"></path><path d="M858.3 540L960 540L890.3 470Z" fill="#17405b" stroke="#17405b"></path></g></svg>