<?xml version="1.0" encoding="UTF-8"?> <svg xmlns="http://www.w3.org/2000/svg" viewBox="0 0 4384.28 4022.18">
    <defs>
        <style>
            .a {
                animation-name: fade;
                animation-duration: 4.0s;
                animation-iteration-count: infinite;
                fill: none;
                opacity: 0.2;
                stroke: #000000;
                stroke-miterlimit: 10;
                stroke-width: 1.74px;
            }

            .ring-0 { animation-delay: 2.2s; }
            .ring-1 { animation-delay: 2.0s; }
            .ring-2 { animation-delay: 1.8s; }
            .ring-3 { animation-delay: 1.6s; }
            .ring-4 { animation-delay: 1.4s; }
            .ring-5 { animation-delay: 1.2s; }
            .ring-6 { animation-delay: 1.0s; }
            .ring-7 { animation-delay: 0.8s; }
            .ring-8 { animation-delay: 0.6s; }
            .ring-9 { animation-delay: 0.4s; }
            .ring-10 { animation-delay: 0.2s; }

            @-webkit-keyframe fade {
                0% { opacity: 0.2; }
                5% { opacity: 0.8; }
                10% { opacity: 0.2; }
            }

            @keyframes fade {
                0% { opacity: 0.2; }
                5% { opacity: 0.8; }
                10% { opacity: 0.2; }
            }
        </style>
    </defs>
    <path class="a ring-0" d="M2100.13,4021.31c-448.88,0-854.56-117.63-1205.78-349.64-276.69-182.76-496.55-422.06-653.47-711.23-159.26-293.5-240-612.9-240-949.32S81.58,1355.45,240.75,1062C397.65,772.78,617.5,533.44,894.2,350.62,1245.43,118.54,1651.17.87,2100.13.87h184c449,0,854.7,117.68,1205.95,349.76C3766.81,533.46,3986.65,772.8,4143.52,1062c159.18,293.43,239.89,612.76,239.89,949.12s-80.75,655.81-240,949.3c-156.93,289.19-376.8,528.49-653.52,711.27-351.19,232-756.86,349.62-1205.74,349.62Z"></path>
    <path class="a ring-1" d="M2100.13,3837.2c-412.18,0-783.72-107.38-1104.3-319.15C744.62,3352.12,545.06,3135,402.7,2872.63,258.22,2606.38,185,2316.53,185,2011.11S258.18,1416,402.58,1149.78C544.92,887.4,744.47,670.2,995.69,504.21,1316.29,292.38,1687.87,185,2100.12,185h184c412.25,0,783.84,107.41,1104.45,319.26,251.23,166,450.77,383.19,593.09,645.55,144.4,266.18,217.61,556,217.61,861.34s-73.25,595.26-217.72,861.5C3839.2,3135,3639.63,3352.13,3388.4,3518.08c-320.57,211.76-692.1,319.13-1104.27,319.13h-184Z"></path>
    <path class="a ring-2" d="M2100.13,3653.09c-375.47,0-712.87-97.12-1002.82-288.66-225.74-149.11-405-344.12-532.79-579.61-129.69-239-195.44-499.31-195.44-773.71s65.72-534.6,195.33-773.54C692.19,1002,871.44,807,1097.18,657.82c290-191.59,627.41-288.74,1002.94-288.74h184c375.53,0,713,97.15,1003,288.76,225.75,149.16,405,344.21,532.75,579.73,129.62,238.93,195.34,499.2,195.34,773.55s-65.75,534.71-195.43,773.69c-127.8,235.51-307.07,430.53-532.82,579.65C2997,3556,2659.61,3653.1,2284.14,3653.1h-184Z"></path>
    <path class="a ring-3" d="M2100.13,3469c-338.76,0-642-86.86-901.35-258.17C998.51,3078.54,839.56,2905.67,726.33,2697c-114.9-211.74-173.15-442.51-173.15-685.9S611.41,1537,726.24,1325.35c113.21-208.7,272.16-381.6,472.43-513.92C1458,640.07,1761.3,553.19,2100.12,553.19h184c338.82,0,642.12,86.89,901.47,258.25,200.27,132.33,359.21,305.23,472.41,513.91,114.84,211.69,173.06,442.41,173.06,685.77s-58.25,474.15-173.14,685.88c-113.23,208.66-272.2,381.54-472.48,513.83C2926.15,3382.13,2622.9,3469,2284.13,3469h-184Z"></path>
    <path class="a ring-4" d="M2100.13,3284.88c-302.05,0-571.17-76.6-799.87-227.68-174.79-115.46-313.45-266.19-412.1-448-100.1-184.48-150.86-385.71-150.86-598.09s50.73-413.53,150.78-598c98.65-181.85,237.3-332.61,412.09-448.1,228.71-151.12,497.85-227.74,800-227.74h184c302.11,0,571.26,76.63,800,227.75,174.79,115.49,313.43,266.25,412.07,448.09,100.05,184.44,150.79,385.63,150.79,598s-50.76,413.6-150.85,598.08c-98.67,181.82-237.32,332.55-412.13,448-228.69,151.07-497.8,227.66-799.85,227.66h-184Z"></path>
    <path class="a ring-5" d="M2100.13,3100.77c-265.35,0-500.32-66.34-698.4-197.19C1252.42,2805,1134.06,2676.36,1050,2521.39c-85.31-157.22-128.57-328.91-128.57-510.28s43.24-353,128.5-510.19c84.09-155,202.43-283.62,351.75-382.28,198.08-130.88,433.08-197.24,698.47-197.24h184c265.39,0,500.4,66.36,698.49,197.25,149.31,98.65,267.66,227.27,351.74,382.27,85.27,157.19,128.51,328.85,128.51,510.2s-43.26,353.05-128.57,510.27c-84.1,155-202.46,283.57-351.78,382.21-198.06,130.83-433,197.17-698.38,197.17Z"></path>
    <path class="a ring-6" d="M2100.13,2916.67c-228.64,0-429.48-56.08-596.92-166.69-123.84-81.8-221.89-188.25-291.42-316.39-70.52-130-106.28-272.1-106.28-422.47s35.74-292.47,106.23-422.41c69.53-128.16,167.57-234.63,291.41-316.46,167.45-110.64,368.3-166.74,597-166.74h184c228.68,0,429.54,56.1,597,166.75,123.84,81.82,221.88,188.29,291.4,316.45,70.49,129.94,106.23,272.06,106.23,422.41s-35.76,292.5-106.28,422.47C3103,2561.73,3004.9,2668.18,2881.05,2750c-167.44,110.61-368.27,166.69-596.91,166.69h-184Z"></path>
    <path class="a ring-7" d="M2100.13,2732.56c-191.94,0-358.63-45.83-495.44-136.2-98.36-65-176.11-149.28-231.08-250.58-55.73-102.71-84-215.31-84-334.66s28.25-231.93,84-334.62c55-101.32,132.7-185.64,231.07-250.64,136.82-90.4,303.53-136.24,495.49-136.24h184c192,0,358.67,45.84,495.5,136.25,98.36,65,176.11,149.32,231.07,250.63,55.71,102.69,84,215.28,84,334.62s-28.26,232-84,334.66c-55,101.3-132.72,185.61-231.09,250.58-136.81,90.38-303.5,136.2-495.44,136.2Z"></path>
    <path class="a ring-8" d="M2100.13,2548.46c-155.23,0-287.78-35.57-394-105.71-72.89-48.15-130.34-110.31-170.74-184.77-40.94-75.45-61.7-158.51-61.7-246.85s20.75-171.39,61.68-246.84c40.4-74.47,97.84-136.65,170.73-184.82,106.19-70.17,238.75-105.74,394-105.74h184c155.25,0,287.81,35.58,394,105.74,72.89,48.16,130.33,110.34,170.73,184.82,40.93,75.44,61.68,158.49,61.68,246.84s-20.76,171.4-61.7,246.85c-40.4,74.46-97.85,136.62-170.74,184.77-106.19,70.14-238.74,105.71-394,105.71Z"></path>
    <path class="a ring-9" d="M2100.13,2364.35c-118.52,0-216.93-25.31-292.49-75.22-47.41-31.32-84.56-71.34-110.4-119-26.15-48.19-39.41-101.7-39.41-159s13.26-110.86,39.4-159.05c25.84-47.63,63-87.67,110.39-119,75.56-49.93,174-75.24,292.51-75.24h184c118.53,0,216.95,25.31,292.51,75.24,47.41,31.33,84.56,71.36,110.39,119,26.14,48.2,39.4,101.71,39.4,159.05s-13.26,110.85-39.41,159c-25.84,47.62-63,87.64-110.4,119-75.56,49.91-174,75.22-292.49,75.22Z"></path>
    <path class="a ring-10" d="M2284.15,1841.93h-184c-165.12,0-258.2,62.91-258.2,169.18s93.08,169.13,258.2,169.13h184c165.12,0,258.2-62.91,258.2-169.13s-93.08-169.18-258.2-169.18Z"></path>
</svg>