<svg id="visual" viewBox="0 0 960 540" width="960" height="540" xmlns="http://www.w3.org/2000/svg" xmlns:xlink="http://www.w3.org/1999/xlink" version="1.1"><rect x="0" y="0" width="960" height="540" fill="#dbdada"></rect><path d="M0 338L137 250L274 281L411 308L549 303L686 267L823 273L960 303L960 541L823 541L686 541L549 541L411 541L274 541L137 541L0 541Z" fill="#cfcece"></path><path d="M0 297L137 317L274 368L411 309L549 315L686 341L823 317L960 316L960 541L823 541L686 541L549 541L411 541L274 541L137 541L0 541Z" fill="#c2c1c1"></path><path d="M0 372L137 348L274 341L411 334L549 419L686 342L823 389L960 428L960 541L823 541L686 541L549 541L411 541L274 541L137 541L0 541Z" fill="#b6b4b4"></path><path d="M0 419L137 420L274 391L411 454L549 412L686 422L823 430L960 423L960 541L823 541L686 541L549 541L411 541L274 541L137 541L0 541Z" fill="#a9a7a7"></path><path d="M0 505L137 495L274 475L411 467L549 447L686 505L823 494L960 447L960 541L823 541L686 541L549 541L411 541L274 541L137 541L0 541Z" fill="#9d9a9a"></path></svg>