<svg id="visual" viewBox="0 0 960 540" width="960" height="540" xmlns="http://www.w3.org/2000/svg" xmlns:xlink="http://www.w3.org/1999/xlink" version="1.1"><g stroke-width="2" stroke-linejoin="bevel"><path d="M478 221L450 134L358 299Z" fill="#101016" stroke="#323232"></path><path d="M450 134L326 92L358 299Z" fill="#101016" stroke="#323232"></path><path d="M450 134L355 0L326 92Z" fill="#15151a" stroke="#323232"></path><path d="M450 134L467 0L355 0Z" fill="#000000" stroke="#323232"></path><path d="M634 0L467 0L450 134Z" fill="#000000" stroke="#323232"></path><path d="M168 316L279 413L358 299Z" fill="#000000" stroke="#323232"></path><path d="M358 299L454 451L478 221Z" fill="#04040d" stroke="#323232"></path><path d="M120 182L358 299L326 92Z" fill="#15151a" stroke="#323232"></path><path d="M120 182L168 316L358 299Z" fill="#0c0c13" stroke="#323232"></path><path d="M279 413L454 451L358 299Z" fill="#101016" stroke="#323232"></path><path d="M671 262L641 182L478 221Z" fill="#0c0c13" stroke="#323232"></path><path d="M478 221L641 182L450 134Z" fill="#07070f" stroke="#323232"></path><path d="M139 0L120 182L326 92Z" fill="#0a0a11" stroke="#323232"></path><path d="M454 451L671 262L478 221Z" fill="#0e0e15" stroke="#323232"></path><path d="M355 0L139 0L326 92Z" fill="#07070f" stroke="#323232"></path><path d="M0 418L159 430L168 316Z" fill="#0c0c13" stroke="#323232"></path><path d="M168 316L159 430L279 413Z" fill="#0a0a11" stroke="#323232"></path><path d="M279 413L346 540L454 451Z" fill="#101016" stroke="#323232"></path><path d="M756 180L634 0L641 182Z" fill="#04040d" stroke="#323232"></path><path d="M641 182L634 0L450 134Z" fill="#0c0c13" stroke="#323232"></path><path d="M159 430L346 540L279 413Z" fill="#02020b" stroke="#323232"></path><path d="M346 540L500 540L454 451Z" fill="#141319" stroke="#323232"></path><path d="M454 451L670 433L671 262Z" fill="#04040d" stroke="#323232"></path><path d="M500 540L670 433L454 451Z" fill="#04040d" stroke="#323232"></path><path d="M671 262L756 180L641 182Z" fill="#0e0e15" stroke="#323232"></path><path d="M805 266L756 180L671 262Z" fill="#02020b" stroke="#323232"></path><path d="M139 0L0 166L120 182Z" fill="#141319" stroke="#323232"></path><path d="M120 182L0 274L168 316Z" fill="#121217" stroke="#323232"></path><path d="M0 166L0 274L120 182Z" fill="#101016" stroke="#323232"></path><path d="M787 366L805 266L671 262Z" fill="#101016" stroke="#323232"></path><path d="M0 418L115 540L159 430Z" fill="#0c0c13" stroke="#323232"></path><path d="M159 430L115 540L346 540Z" fill="#15151a" stroke="#323232"></path><path d="M960 118L761 0L756 180Z" fill="#07070f" stroke="#323232"></path><path d="M756 180L761 0L634 0Z" fill="#101016" stroke="#323232"></path><path d="M139 0L0 0L0 166Z" fill="#121217" stroke="#323232"></path><path d="M670 433L787 366L671 262Z" fill="#02020b" stroke="#323232"></path><path d="M500 540L659 540L670 433Z" fill="#0e0e15" stroke="#323232"></path><path d="M771 540L787 366L670 433Z" fill="#0a0a11" stroke="#323232"></path><path d="M0 274L0 418L168 316Z" fill="#141319" stroke="#323232"></path><path d="M0 418L0 540L115 540Z" fill="#000000" stroke="#323232"></path><path d="M659 540L771 540L670 433Z" fill="#0e0e15" stroke="#323232"></path><path d="M787 366L960 283L805 266Z" fill="#04040d" stroke="#323232"></path><path d="M960 430L960 283L787 366Z" fill="#000000" stroke="#323232"></path><path d="M805 266L960 118L756 180Z" fill="#000000" stroke="#323232"></path><path d="M960 283L960 118L805 266Z" fill="#141319" stroke="#323232"></path><path d="M960 118L960 0L761 0Z" fill="#141319" stroke="#323232"></path><path d="M771 540L960 430L787 366Z" fill="#04040d" stroke="#323232"></path><path d="M771 540L960 540L960 430Z" fill="#04040d" stroke="#323232"></path></g></svg>