<svg id="visual" viewBox="0 0 960 540" width="960" height="540" xmlns="http://www.w3.org/2000/svg" xmlns:xlink="http://www.w3.org/1999/xlink" version="1.1"><rect x="0" y="0" width="960" height="540" fill="#3bbfb3"></rect><path d="M0 313L137 330L274 406L411 301L549 430L686 349L823 294L960 283L960 0L823 0L686 0L549 0L411 0L274 0L137 0L0 0Z" fill="#2b9187"></path><path d="M0 368L137 335L274 265L411 250L549 312L686 276L823 322L960 279L960 0L823 0L686 0L549 0L411 0L274 0L137 0L0 0Z" fill="#227b75"></path><path d="M0 233L137 190L274 240L411 286L549 208L686 290L823 231L960 283L960 0L823 0L686 0L549 0L411 0L274 0L137 0L0 0Z" fill="#1b6662"></path><path d="M0 207L137 171L274 160L411 155L549 122L686 204L823 135L960 201L960 0L823 0L686 0L549 0L411 0L274 0L137 0L0 0Z" fill="#145250"></path><path d="M0 60L137 70L274 66L411 95L549 62L686 60L823 68L960 94L960 0L823 0L686 0L549 0L411 0L274 0L137 0L0 0Z" fill="#0f3e3e"></path></svg>