<svg id="visual" viewBox="0 0 960 540" width="960" height="540" xmlns="http://www.w3.org/2000/svg" xmlns:xlink="http://www.w3.org/1999/xlink" version="1.1"><path d="M0 39L80 55L160 23L240 50L320 33L400 44L480 39L560 39L640 50L720 55L800 33L880 33L960 66L960 0L880 0L800 0L720 0L640 0L560 0L480 0L400 0L320 0L240 0L160 0L80 0L0 0Z" fill="#3a3a3a"></path><path d="M0 77L80 109L160 44L240 66L320 93L400 82L480 71L560 93L640 87L720 98L800 82L880 93L960 104L960 64L880 31L800 31L720 53L640 48L560 37L480 37L400 42L320 31L240 48L160 21L80 53L0 37Z" fill="#50473b"></path><path d="M0 228L80 217L160 195L240 158L320 190L400 217L480 131L560 255L640 228L720 201L800 152L880 217L960 314L960 102L880 91L800 80L720 96L640 85L560 91L480 69L400 80L320 91L240 64L160 42L80 107L0 75Z" fill="#66553b"></path><path d="M0 249L80 266L160 249L240 217L320 249L400 276L480 152L560 309L640 249L720 217L800 179L880 293L960 336L960 312L880 215L800 150L720 199L640 226L560 253L480 129L400 215L320 188L240 156L160 193L80 215L0 226Z" fill="#7c633b"></path><path d="M0 336L80 330L160 298L240 255L320 303L400 352L480 255L560 390L640 271L720 260L800 276L880 352L960 368L960 334L880 291L800 177L720 215L640 247L560 307L480 150L400 274L320 247L240 215L160 247L80 264L0 247Z" fill="#92713a"></path><path d="M0 460L80 406L160 395L240 357L320 363L400 411L480 357L560 422L640 401L720 357L800 352L880 438L960 449L960 366L880 350L800 274L720 258L640 269L560 388L480 253L400 350L320 301L240 253L160 296L80 328L0 334Z" fill="#a98038"></path><path d="M0 482L80 455L160 422L240 390L320 417L400 460L480 401L560 455L640 444L720 379L800 390L880 471L960 482L960 447L880 436L800 350L720 355L640 399L560 420L480 355L400 409L320 361L240 355L160 393L80 404L0 458Z" fill="#c08f35"></path><path d="M0 541L80 541L160 541L240 541L320 541L400 541L480 541L560 541L640 541L720 541L800 541L880 541L960 541L960 480L880 469L800 388L720 377L640 442L560 453L480 399L400 458L320 415L240 388L160 420L80 453L0 480Z" fill="#d79f31"></path></svg>