<svg id="visual" viewBox="0 0 960 540" width="960" height="540" xmlns="http://www.w3.org/2000/svg" xmlns:xlink="http://www.w3.org/1999/xlink" version="1.1"><path d="M0 168L20 165.8C40 163.7 80 159.3 120 158C160 156.7 200 158.3 240 157C280 155.7 320 151.3 360 144.5C400 137.7 440 128.3 480 131.5C520 134.7 560 150.3 600 158C640 165.7 680 165.3 720 162.7C760 160 800 155 840 155.7C880 156.3 920 162.7 940 165.8L960 169L960 0L940 0C920 0 880 0 840 0C800 0 760 0 720 0C680 0 640 0 600 0C560 0 520 0 480 0C440 0 400 0 360 0C320 0 280 0 240 0C200 0 160 0 120 0C80 0 40 0 20 0L0 0Z" fill="#0e6872"></path><path d="M0 96L20 100.8C40 105.7 80 115.3 120 119.2C160 123 200 121 240 120.8C280 120.7 320 122.3 360 121.5C400 120.7 440 117.3 480 112.8C520 108.3 560 102.7 600 105.2C640 107.7 680 118.3 720 123.8C760 129.3 800 129.7 840 124C880 118.3 920 106.7 940 100.8L960 95L960 0L940 0C920 0 880 0 840 0C800 0 760 0 720 0C680 0 640 0 600 0C560 0 520 0 480 0C440 0 400 0 360 0C320 0 280 0 240 0C200 0 160 0 120 0C80 0 40 0 20 0L0 0Z" fill="#228879"></path><path d="M0 81L20 81.5C40 82 80 83 120 83.8C160 84.7 200 85.3 240 88.7C280 92 320 98 360 101C400 104 440 104 480 105C520 106 560 108 600 108.2C640 108.3 680 106.7 720 104.5C760 102.3 800 99.7 840 100C880 100.3 920 103.7 940 105.3L960 107L960 0L940 0C920 0 880 0 840 0C800 0 760 0 720 0C680 0 640 0 600 0C560 0 520 0 480 0C440 0 400 0 360 0C320 0 280 0 240 0C200 0 160 0 120 0C80 0 40 0 20 0L0 0Z" fill="#5da571"></path><path d="M0 77L20 74C40 71 80 65 120 61.5C160 58 200 57 240 58.2C280 59.3 320 62.7 360 64.5C400 66.3 440 66.7 480 67C520 67.3 560 67.7 600 68.8C640 70 680 72 720 68C760 64 800 54 840 53.3C880 52.7 920 61.3 940 65.7L960 70L960 0L940 0C920 0 880 0 840 0C800 0 760 0 720 0C680 0 640 0 600 0C560 0 520 0 480 0C440 0 400 0 360 0C320 0 280 0 240 0C200 0 160 0 120 0C80 0 40 0 20 0L0 0Z" fill="#a4be64"></path><path d="M0 32L20 34.5C40 37 80 42 120 44.7C160 47.3 200 47.7 240 43.3C280 39 320 30 360 26C400 22 440 23 480 25.8C520 28.7 560 33.3 600 33.2C640 33 680 28 720 25.3C760 22.7 800 22.3 840 24.7C880 27 920 32 940 34.5L960 37L960 0L940 0C920 0 880 0 840 0C800 0 760 0 720 0C680 0 640 0 600 0C560 0 520 0 480 0C440 0 400 0 360 0C320 0 280 0 240 0C200 0 160 0 120 0C80 0 40 0 20 0L0 0Z" fill="#f6ce66"></path></svg>