<svg id="visual" viewBox="0 0 960 540" width="960" height="540" xmlns="http://www.w3.org/2000/svg" xmlns:xlink="http://www.w3.org/1999/xlink" version="1.1"><path d="M0 157L22.8 152.3C45.7 147.7 91.3 138.3 137 138C182.7 137.7 228.3 146.3 274 148.3C319.7 150.3 365.3 145.7 411.2 140.5C457 135.3 503 129.7 548.8 131C594.7 132.3 640.3 140.7 686 141.2C731.7 141.7 777.3 134.3 823 134.8C868.7 135.3 914.3 143.7 937.2 147.8L960 152L960 0L937.2 0C914.3 0 868.7 0 823 0C777.3 0 731.7 0 686 0C640.3 0 594.7 0 548.8 0C503 0 457 0 411.2 0C365.3 0 319.7 0 274 0C228.3 0 182.7 0 137 0C91.3 0 45.7 0 22.8 0L0 0Z" fill="#481919"></path><path d="M0 118L22.8 118.3C45.7 118.7 91.3 119.3 137 116.5C182.7 113.7 228.3 107.3 274 109.7C319.7 112 365.3 123 411.2 130.2C457 137.3 503 140.7 548.8 140.8C594.7 141 640.3 138 686 137.3C731.7 136.7 777.3 138.3 823 135.2C868.7 132 914.3 124 937.2 120L960 116L960 0L937.2 0C914.3 0 868.7 0 823 0C777.3 0 731.7 0 686 0C640.3 0 594.7 0 548.8 0C503 0 457 0 411.2 0C365.3 0 319.7 0 274 0C228.3 0 182.7 0 137 0C91.3 0 45.7 0 22.8 0L0 0Z" fill="#a01115"></path><path d="M0 81L22.8 80.7C45.7 80.3 91.3 79.7 137 83.8C182.7 88 228.3 97 274 100.3C319.7 103.7 365.3 101.3 411.2 94.8C457 88.3 503 77.7 548.8 77.7C594.7 77.7 640.3 88.3 686 92.3C731.7 96.3 777.3 93.7 823 96.3C868.7 99 914.3 107 937.2 111L960 115L960 0L937.2 0C914.3 0 868.7 0 823 0C777.3 0 731.7 0 686 0C640.3 0 594.7 0 548.8 0C503 0 457 0 411.2 0C365.3 0 319.7 0 274 0C228.3 0 182.7 0 137 0C91.3 0 45.7 0 22.8 0L0 0Z" fill="#d50000"></path><path d="M0 57L22.8 57.8C45.7 58.7 91.3 60.3 137 62.7C182.7 65 228.3 68 274 65.2C319.7 62.3 365.3 53.7 411.2 52.2C457 50.7 503 56.3 548.8 61.3C594.7 66.3 640.3 70.7 686 68.8C731.7 67 777.3 59 823 58.3C868.7 57.7 914.3 64.3 937.2 67.7L960 71L960 0L937.2 0C914.3 0 868.7 0 823 0C777.3 0 731.7 0 686 0C640.3 0 594.7 0 548.8 0C503 0 457 0 411.2 0C365.3 0 319.7 0 274 0C228.3 0 182.7 0 137 0C91.3 0 45.7 0 22.8 0L0 0Z" fill="#a01115"></path><path d="M0 20L22.8 23.8C45.7 27.7 91.3 35.3 137 38.5C182.7 41.7 228.3 40.3 274 41.2C319.7 42 365.3 45 411.2 47C457 49 503 50 548.8 47.5C594.7 45 640.3 39 686 34.5C731.7 30 777.3 27 823 29.7C868.7 32.3 914.3 40.7 937.2 44.8L960 49L960 0L937.2 0C914.3 0 868.7 0 823 0C777.3 0 731.7 0 686 0C640.3 0 594.7 0 548.8 0C503 0 457 0 411.2 0C365.3 0 319.7 0 274 0C228.3 0 182.7 0 137 0C91.3 0 45.7 0 22.8 0L0 0Z" fill="#481919"></path></svg>