<svg id="visual" viewBox="0 0 960 540" width="960" height="540" xmlns="http://www.w3.org/2000/svg" xmlns:xlink="http://www.w3.org/1999/xlink" version="1.1"><path d="M0 156L20 153.8C40 151.7 80 147.3 120 146.2C160 145 200 147 240 147.7C280 148.3 320 147.7 360 142.8C400 138 440 129 480 128.2C520 127.3 560 134.7 600 137.3C640 140 680 138 720 138.5C760 139 800 142 840 143.2C880 144.3 920 143.7 940 143.3L960 143L960 0L940 0C920 0 880 0 840 0C800 0 760 0 720 0C680 0 640 0 600 0C560 0 520 0 480 0C440 0 400 0 360 0C320 0 280 0 240 0C200 0 160 0 120 0C80 0 40 0 20 0L0 0Z" fill="#005151"></path><path d="M0 107L20 112.2C40 117.3 80 127.7 120 132.5C160 137.3 200 136.7 240 129.8C280 123 320 110 360 108.3C400 106.7 440 116.3 480 124.2C520 132 560 138 600 133.5C640 129 680 114 720 106.8C760 99.7 800 100.3 840 100.3C880 100.3 920 99.7 940 99.3L960 99L960 0L940 0C920 0 880 0 840 0C800 0 760 0 720 0C680 0 640 0 600 0C560 0 520 0 480 0C440 0 400 0 360 0C320 0 280 0 240 0C200 0 160 0 120 0C80 0 40 0 20 0L0 0Z" fill="#006462"></path><path d="M0 106L20 104.2C40 102.3 80 98.7 120 98.2C160 97.7 200 100.3 240 97.7C280 95 320 87 360 80.8C400 74.7 440 70.3 480 72C520 73.7 560 81.3 600 87.5C640 93.7 680 98.3 720 101.3C760 104.3 800 105.7 840 99.2C880 92.7 920 78.3 940 71.2L960 64L960 0L940 0C920 0 880 0 840 0C800 0 760 0 720 0C680 0 640 0 600 0C560 0 520 0 480 0C440 0 400 0 360 0C320 0 280 0 240 0C200 0 160 0 120 0C80 0 40 0 20 0L0 0Z" fill="#007772"></path><path d="M0 70L20 70.8C40 71.7 80 73.3 120 73.3C160 73.3 200 71.7 240 69.3C280 67 320 64 360 65.5C400 67 440 73 480 75.7C520 78.3 560 77.7 600 78.5C640 79.3 680 81.7 720 81.5C760 81.3 800 78.7 840 72.5C880 66.3 920 56.7 940 51.8L960 47L960 0L940 0C920 0 880 0 840 0C800 0 760 0 720 0C680 0 640 0 600 0C560 0 520 0 480 0C440 0 400 0 360 0C320 0 280 0 240 0C200 0 160 0 120 0C80 0 40 0 20 0L0 0Z" fill="#048b83"></path><path d="M0 23L20 22.2C40 21.3 80 19.7 120 24.5C160 29.3 200 40.7 240 41.7C280 42.7 320 33.3 360 33.3C400 33.3 440 42.7 480 47.3C520 52 560 52 600 46.3C640 40.7 680 29.3 720 23.7C760 18 800 18 840 19C880 20 920 22 940 23L960 24L960 0L940 0C920 0 880 0 840 0C800 0 760 0 720 0C680 0 640 0 600 0C560 0 520 0 480 0C440 0 400 0 360 0C320 0 280 0 240 0C200 0 160 0 120 0C80 0 40 0 20 0L0 0Z" fill="#0ea093"></path></svg>