<svg id="visual" viewBox="0 0 960 540" width="960" height="540" xmlns="http://www.w3.org/2000/svg" xmlns:xlink="http://www.w3.org/1999/xlink" version="1.1"><path d="M0 203L22.8 201C45.7 199 91.3 195 137 184.8C182.7 174.7 228.3 158.3 274 150.7C319.7 143 365.3 144 411.2 143C457 142 503 139 548.8 143.5C594.7 148 640.3 160 686 164.7C731.7 169.3 777.3 166.7 823 169.2C868.7 171.7 914.3 179.3 937.2 183.2L960 187L960 0L937.2 0C914.3 0 868.7 0 823 0C777.3 0 731.7 0 686 0C640.3 0 594.7 0 548.8 0C503 0 457 0 411.2 0C365.3 0 319.7 0 274 0C228.3 0 182.7 0 137 0C91.3 0 45.7 0 22.8 0L0 0Z" fill="#0b1e59"></path><path d="M0 141L22.8 139.5C45.7 138 91.3 135 137 141.2C182.7 147.3 228.3 162.7 274 166.5C319.7 170.3 365.3 162.7 411.2 152.7C457 142.7 503 130.3 548.8 126.2C594.7 122 640.3 126 686 125.3C731.7 124.7 777.3 119.3 823 127.5C868.7 135.7 914.3 157.3 937.2 168.2L960 179L960 0L937.2 0C914.3 0 868.7 0 823 0C777.3 0 731.7 0 686 0C640.3 0 594.7 0 548.8 0C503 0 457 0 411.2 0C365.3 0 319.7 0 274 0C228.3 0 182.7 0 137 0C91.3 0 45.7 0 22.8 0L0 0Z" fill="#0e2971"></path><path d="M0 105L22.8 108.8C45.7 112.7 91.3 120.3 137 125C182.7 129.7 228.3 131.3 274 128.5C319.7 125.7 365.3 118.3 411.2 111.3C457 104.3 503 97.7 548.8 99.3C594.7 101 640.3 111 686 115.2C731.7 119.3 777.3 117.7 823 112.8C868.7 108 914.3 100 937.2 96L960 92L960 0L937.2 0C914.3 0 868.7 0 823 0C777.3 0 731.7 0 686 0C640.3 0 594.7 0 548.8 0C503 0 457 0 411.2 0C365.3 0 319.7 0 274 0C228.3 0 182.7 0 137 0C91.3 0 45.7 0 22.8 0L0 0Z" fill="#10358a"></path><path d="M0 63L22.8 63.3C45.7 63.7 91.3 64.3 137 64C182.7 63.7 228.3 62.3 274 61.3C319.7 60.3 365.3 59.7 411.2 64.7C457 69.7 503 80.3 548.8 81.3C594.7 82.3 640.3 73.7 686 67.5C731.7 61.3 777.3 57.7 823 56.2C868.7 54.7 914.3 55.3 937.2 55.7L960 56L960 0L937.2 0C914.3 0 868.7 0 823 0C777.3 0 731.7 0 686 0C640.3 0 594.7 0 548.8 0C503 0 457 0 411.2 0C365.3 0 319.7 0 274 0C228.3 0 182.7 0 137 0C91.3 0 45.7 0 22.8 0L0 0Z" fill="#0f42a4"></path><path d="M0 56L22.8 55C45.7 54 91.3 52 137 50.2C182.7 48.3 228.3 46.7 274 46C319.7 45.3 365.3 45.7 411.2 47.5C457 49.3 503 52.7 548.8 55C594.7 57.3 640.3 58.7 686 58.8C731.7 59 777.3 58 823 56.7C868.7 55.3 914.3 53.7 937.2 52.8L960 52L960 0L937.2 0C914.3 0 868.7 0 823 0C777.3 0 731.7 0 686 0C640.3 0 594.7 0 548.8 0C503 0 457 0 411.2 0C365.3 0 319.7 0 274 0C228.3 0 182.7 0 137 0C91.3 0 45.7 0 22.8 0L0 0Z" fill="#064fbe"></path></svg>