<svg id="visual" viewBox="0 0 960 540" width="960" height="540" xmlns="http://www.w3.org/2000/svg" xmlns:xlink="http://www.w3.org/1999/xlink" version="1.1"><path d="M0 164L22.8 164.2C45.7 164.3 91.3 164.7 137 159C182.7 153.3 228.3 141.7 274 134.2C319.7 126.7 365.3 123.3 411.2 129.3C457 135.3 503 150.7 548.8 158.5C594.7 166.3 640.3 166.7 686 163.3C731.7 160 777.3 153 823 155C868.7 157 914.3 168 937.2 173.5L960 179L960 0L937.2 0C914.3 0 868.7 0 823 0C777.3 0 731.7 0 686 0C640.3 0 594.7 0 548.8 0C503 0 457 0 411.2 0C365.3 0 319.7 0 274 0C228.3 0 182.7 0 137 0C91.3 0 45.7 0 22.8 0L0 0Z" fill="#d50000"></path><path d="M0 123L22.8 121.7C45.7 120.3 91.3 117.7 137 117.7C182.7 117.7 228.3 120.3 274 120.3C319.7 120.3 365.3 117.7 411.2 122.2C457 126.7 503 138.3 548.8 144C594.7 149.7 640.3 149.3 686 144.2C731.7 139 777.3 129 823 128.8C868.7 128.7 914.3 138.3 937.2 143.2L960 148L960 0L937.2 0C914.3 0 868.7 0 823 0C777.3 0 731.7 0 686 0C640.3 0 594.7 0 548.8 0C503 0 457 0 411.2 0C365.3 0 319.7 0 274 0C228.3 0 182.7 0 137 0C91.3 0 45.7 0 22.8 0L0 0Z" fill="#f2a591"></path><path d="M0 69L22.8 71.8C45.7 74.7 91.3 80.3 137 83.7C182.7 87 228.3 88 274 90.2C319.7 92.3 365.3 95.7 411.2 92.2C457 88.7 503 78.3 548.8 74.7C594.7 71 640.3 74 686 74.3C731.7 74.7 777.3 72.3 823 73.2C868.7 74 914.3 78 937.2 80L960 82L960 0L937.2 0C914.3 0 868.7 0 823 0C777.3 0 731.7 0 686 0C640.3 0 594.7 0 548.8 0C503 0 457 0 411.2 0C365.3 0 319.7 0 274 0C228.3 0 182.7 0 137 0C91.3 0 45.7 0 22.8 0L0 0Z" fill="#ebebeb"></path><path d="M0 76L22.8 75C45.7 74 91.3 72 137 69.5C182.7 67 228.3 64 274 64.3C319.7 64.7 365.3 68.3 411.2 72C457 75.7 503 79.3 548.8 80C594.7 80.7 640.3 78.3 686 74.7C731.7 71 777.3 66 823 64.7C868.7 63.3 914.3 65.7 937.2 66.8L960 68L960 0L937.2 0C914.3 0 868.7 0 823 0C777.3 0 731.7 0 686 0C640.3 0 594.7 0 548.8 0C503 0 457 0 411.2 0C365.3 0 319.7 0 274 0C228.3 0 182.7 0 137 0C91.3 0 45.7 0 22.8 0L0 0Z" fill="#f2a591"></path><path d="M0 50L22.8 48.7C45.7 47.3 91.3 44.7 137 44.8C182.7 45 228.3 48 274 46.3C319.7 44.7 365.3 38.3 411.2 38.3C457 38.3 503 44.7 548.8 45.8C594.7 47 640.3 43 686 39.8C731.7 36.7 777.3 34.3 823 36.2C868.7 38 914.3 44 937.2 47L960 50L960 0L937.2 0C914.3 0 868.7 0 823 0C777.3 0 731.7 0 686 0C640.3 0 594.7 0 548.8 0C503 0 457 0 411.2 0C365.3 0 319.7 0 274 0C228.3 0 182.7 0 137 0C91.3 0 45.7 0 22.8 0L0 0Z" fill="#d50000"></path></svg>