<svg id="visual" viewBox="0 0 960 540" width="960" height="540" xmlns="http://www.w3.org/2000/svg" xmlns:xlink="http://www.w3.org/1999/xlink" version="1.1"><path d="M0 150L22.8 152.7C45.7 155.3 91.3 160.7 137 161C182.7 161.3 228.3 156.7 274 151.5C319.7 146.3 365.3 140.7 411.2 143.5C457 146.3 503 157.7 548.8 158.8C594.7 160 640.3 151 686 145.7C731.7 140.3 777.3 138.7 823 141.5C868.7 144.3 914.3 151.7 937.2 155.3L960 159L960 0L937.2 0C914.3 0 868.7 0 823 0C777.3 0 731.7 0 686 0C640.3 0 594.7 0 548.8 0C503 0 457 0 411.2 0C365.3 0 319.7 0 274 0C228.3 0 182.7 0 137 0C91.3 0 45.7 0 22.8 0L0 0Z" fill="#5c0524"></path><path d="M0 141L22.8 135.7C45.7 130.3 91.3 119.7 137 115.8C182.7 112 228.3 115 274 114.3C319.7 113.7 365.3 109.3 411.2 112.8C457 116.3 503 127.7 548.8 130.5C594.7 133.3 640.3 127.7 686 125.5C731.7 123.3 777.3 124.7 823 126.3C868.7 128 914.3 130 937.2 131L960 132L960 0L937.2 0C914.3 0 868.7 0 823 0C777.3 0 731.7 0 686 0C640.3 0 594.7 0 548.8 0C503 0 457 0 411.2 0C365.3 0 319.7 0 274 0C228.3 0 182.7 0 137 0C91.3 0 45.7 0 22.8 0L0 0Z" fill="#6c052c"></path><path d="M0 88L22.8 87.7C45.7 87.3 91.3 86.7 137 84C182.7 81.3 228.3 76.7 274 79.3C319.7 82 365.3 92 411.2 96.3C457 100.7 503 99.3 548.8 96.2C594.7 93 640.3 88 686 83C731.7 78 777.3 73 823 70C868.7 67 914.3 66 937.2 65.5L960 65L960 0L937.2 0C914.3 0 868.7 0 823 0C777.3 0 731.7 0 686 0C640.3 0 594.7 0 548.8 0C503 0 457 0 411.2 0C365.3 0 319.7 0 274 0C228.3 0 182.7 0 137 0C91.3 0 45.7 0 22.8 0L0 0Z" fill="#7c0435"></path><path d="M0 41L22.8 43.3C45.7 45.7 91.3 50.3 137 50.2C182.7 50 228.3 45 274 46.7C319.7 48.3 365.3 56.7 411.2 60C457 63.3 503 61.7 548.8 64.5C594.7 67.3 640.3 74.7 686 72.5C731.7 70.3 777.3 58.7 823 51.7C868.7 44.7 914.3 42.3 937.2 41.2L960 40L960 0L937.2 0C914.3 0 868.7 0 823 0C777.3 0 731.7 0 686 0C640.3 0 594.7 0 548.8 0C503 0 457 0 411.2 0C365.3 0 319.7 0 274 0C228.3 0 182.7 0 137 0C91.3 0 45.7 0 22.8 0L0 0Z" fill="#8c023e"></path><path d="M0 17L22.8 18.5C45.7 20 91.3 23 137 24.5C182.7 26 228.3 26 274 29.5C319.7 33 365.3 40 411.2 39.7C457 39.3 503 31.7 548.8 29.2C594.7 26.7 640.3 29.3 686 31.3C731.7 33.3 777.3 34.7 823 33.2C868.7 31.7 914.3 27.3 937.2 25.2L960 23L960 0L937.2 0C914.3 0 868.7 0 823 0C777.3 0 731.7 0 686 0C640.3 0 594.7 0 548.8 0C503 0 457 0 411.2 0C365.3 0 319.7 0 274 0C228.3 0 182.7 0 137 0C91.3 0 45.7 0 22.8 0L0 0Z" fill="#9d0047"></path></svg>