<svg id="visual" viewBox="0 0 960 540" width="960" height="540" xmlns="http://www.w3.org/2000/svg" xmlns:xlink="http://www.w3.org/1999/xlink" version="1.1"><path d="M0 218L22.8 210.2C45.7 202.3 91.3 186.7 137 177.8C182.7 169 228.3 167 274 164.2C319.7 161.3 365.3 157.7 411.2 157.2C457 156.7 503 159.3 548.8 166.7C594.7 174 640.3 186 686 188.5C731.7 191 777.3 184 823 174C868.7 164 914.3 151 937.2 144.5L960 138L960 0L937.2 0C914.3 0 868.7 0 823 0C777.3 0 731.7 0 686 0C640.3 0 594.7 0 548.8 0C503 0 457 0 411.2 0C365.3 0 319.7 0 274 0C228.3 0 182.7 0 137 0C91.3 0 45.7 0 22.8 0L0 0Z" fill="#c75821"></path><path d="M0 140L22.8 135.5C45.7 131 91.3 122 137 128.5C182.7 135 228.3 157 274 168.7C319.7 180.3 365.3 181.7 411.2 174.7C457 167.7 503 152.3 548.8 139.5C594.7 126.7 640.3 116.3 686 114.3C731.7 112.3 777.3 118.7 823 129.7C868.7 140.7 914.3 156.3 937.2 164.2L960 172L960 0L937.2 0C914.3 0 868.7 0 823 0C777.3 0 731.7 0 686 0C640.3 0 594.7 0 548.8 0C503 0 457 0 411.2 0C365.3 0 319.7 0 274 0C228.3 0 182.7 0 137 0C91.3 0 45.7 0 22.8 0L0 0Z" fill="#b04c1b"></path><path d="M0 95L22.8 95.2C45.7 95.3 91.3 95.7 137 93.8C182.7 92 228.3 88 274 89.7C319.7 91.3 365.3 98.7 411.2 105.2C457 111.7 503 117.3 548.8 118.2C594.7 119 640.3 115 686 114.5C731.7 114 777.3 117 823 116.3C868.7 115.7 914.3 111.3 937.2 109.2L960 107L960 0L937.2 0C914.3 0 868.7 0 823 0C777.3 0 731.7 0 686 0C640.3 0 594.7 0 548.8 0C503 0 457 0 411.2 0C365.3 0 319.7 0 274 0C228.3 0 182.7 0 137 0C91.3 0 45.7 0 22.8 0L0 0Z" fill="#994016"></path><path d="M0 70L22.8 66.8C45.7 63.7 91.3 57.3 137 63C182.7 68.7 228.3 86.3 274 94.2C319.7 102 365.3 100 411.2 93.5C457 87 503 76 548.8 76.5C594.7 77 640.3 89 686 94.7C731.7 100.3 777.3 99.7 823 92C868.7 84.3 914.3 69.7 937.2 62.3L960 55L960 0L937.2 0C914.3 0 868.7 0 823 0C777.3 0 731.7 0 686 0C640.3 0 594.7 0 548.8 0C503 0 457 0 411.2 0C365.3 0 319.7 0 274 0C228.3 0 182.7 0 137 0C91.3 0 45.7 0 22.8 0L0 0Z" fill="#833411"></path><path d="M0 60L22.8 56.5C45.7 53 91.3 46 137 40.5C182.7 35 228.3 31 274 29C319.7 27 365.3 27 411.2 31.5C457 36 503 45 548.8 45.7C594.7 46.3 640.3 38.7 686 39.8C731.7 41 777.3 51 823 51.7C868.7 52.3 914.3 43.7 937.2 39.3L960 35L960 0L937.2 0C914.3 0 868.7 0 823 0C777.3 0 731.7 0 686 0C640.3 0 594.7 0 548.8 0C503 0 457 0 411.2 0C365.3 0 319.7 0 274 0C228.3 0 182.7 0 137 0C91.3 0 45.7 0 22.8 0L0 0Z" fill="#6d290b"></path></svg>