<svg id="visual" viewBox="0 0 960 540" width="960" height="540" xmlns="http://www.w3.org/2000/svg" xmlns:xlink="http://www.w3.org/1999/xlink" version="1.1"><path d="M0 161L26.7 158.2C53.3 155.3 106.7 149.7 160 144.8C213.3 140 266.7 136 320 130C373.3 124 426.7 116 480 123.8C533.3 131.7 586.7 155.3 640 156.5C693.3 157.7 746.7 136.3 800 129.3C853.3 122.3 906.7 129.7 933.3 133.3L960 137L960 0L933.3 0C906.7 0 853.3 0 800 0C746.7 0 693.3 0 640 0C586.7 0 533.3 0 480 0C426.7 0 373.3 0 320 0C266.7 0 213.3 0 160 0C106.7 0 53.3 0 26.7 0L0 0Z" fill="#8f043e"></path><path d="M0 133L26.7 134.2C53.3 135.3 106.7 137.7 160 130.8C213.3 124 266.7 108 320 99.7C373.3 91.3 426.7 90.7 480 95C533.3 99.3 586.7 108.7 640 114.7C693.3 120.7 746.7 123.3 800 121C853.3 118.7 906.7 111.3 933.3 107.7L960 104L960 0L933.3 0C906.7 0 853.3 0 800 0C746.7 0 693.3 0 640 0C586.7 0 533.3 0 480 0C426.7 0 373.3 0 320 0C266.7 0 213.3 0 160 0C106.7 0 53.3 0 26.7 0L0 0Z" fill="#a60f49"></path><path d="M0 108L26.7 108.8C53.3 109.7 106.7 111.3 160 111.8C213.3 112.3 266.7 111.7 320 105.3C373.3 99 426.7 87 480 82.2C533.3 77.3 586.7 79.7 640 82.3C693.3 85 746.7 88 800 90.2C853.3 92.3 906.7 93.7 933.3 94.3L960 95L960 0L933.3 0C906.7 0 853.3 0 800 0C746.7 0 693.3 0 640 0C586.7 0 533.3 0 480 0C426.7 0 373.3 0 320 0C266.7 0 213.3 0 160 0C106.7 0 53.3 0 26.7 0L0 0Z" fill="#bd1a53"></path><path d="M0 66L26.7 64.8C53.3 63.7 106.7 61.3 160 57.5C213.3 53.7 266.7 48.3 320 51.5C373.3 54.7 426.7 66.3 480 66.7C533.3 67 586.7 56 640 51.3C693.3 46.7 746.7 48.3 800 49.8C853.3 51.3 906.7 52.7 933.3 53.3L960 54L960 0L933.3 0C906.7 0 853.3 0 800 0C746.7 0 693.3 0 640 0C586.7 0 533.3 0 480 0C426.7 0 373.3 0 320 0C266.7 0 213.3 0 160 0C106.7 0 53.3 0 26.7 0L0 0Z" fill="#d5245e"></path><path d="M0 41L26.7 38.2C53.3 35.3 106.7 29.7 160 25.7C213.3 21.7 266.7 19.3 320 21.8C373.3 24.3 426.7 31.7 480 34C533.3 36.3 586.7 33.7 640 36C693.3 38.3 746.7 45.7 800 44.3C853.3 43 906.7 33 933.3 28L960 23L960 0L933.3 0C906.7 0 853.3 0 800 0C746.7 0 693.3 0 640 0C586.7 0 533.3 0 480 0C426.7 0 373.3 0 320 0C266.7 0 213.3 0 160 0C106.7 0 53.3 0 26.7 0L0 0Z" fill="#ee2e68"></path></svg>