<svg id="visual" viewBox="0 0 960 540" width="960" height="540" xmlns="http://www.w3.org/2000/svg" xmlns:xlink="http://www.w3.org/1999/xlink" version="1.1"><path d="M0 113L22.8 118C45.7 123 91.3 133 137 142C182.7 151 228.3 159 274 155.3C319.7 151.7 365.3 136.3 411.2 127.5C457 118.7 503 116.3 548.8 120.3C594.7 124.3 640.3 134.7 686 134.5C731.7 134.3 777.3 123.7 823 118.8C868.7 114 914.3 115 937.2 115.5L960 116L960 0L937.2 0C914.3 0 868.7 0 823 0C777.3 0 731.7 0 686 0C640.3 0 594.7 0 548.8 0C503 0 457 0 411.2 0C365.3 0 319.7 0 274 0C228.3 0 182.7 0 137 0C91.3 0 45.7 0 22.8 0L0 0Z" fill="#6b0065"></path><path d="M0 104L22.8 105C45.7 106 91.3 108 137 109.3C182.7 110.7 228.3 111.3 274 108.5C319.7 105.7 365.3 99.3 411.2 105C457 110.7 503 128.3 548.8 134.3C594.7 140.3 640.3 134.7 686 126.2C731.7 117.7 777.3 106.3 823 106.8C868.7 107.3 914.3 119.7 937.2 125.8L960 132L960 0L937.2 0C914.3 0 868.7 0 823 0C777.3 0 731.7 0 686 0C640.3 0 594.7 0 548.8 0C503 0 457 0 411.2 0C365.3 0 319.7 0 274 0C228.3 0 182.7 0 137 0C91.3 0 45.7 0 22.8 0L0 0Z" fill="#8b1384"></path><path d="M0 100L22.8 100.7C45.7 101.3 91.3 102.7 137 99C182.7 95.3 228.3 86.7 274 81.3C319.7 76 365.3 74 411.2 72.3C457 70.7 503 69.3 548.8 74.3C594.7 79.3 640.3 90.7 686 95C731.7 99.3 777.3 96.7 823 94.7C868.7 92.7 914.3 91.3 937.2 90.7L960 90L960 0L937.2 0C914.3 0 868.7 0 823 0C777.3 0 731.7 0 686 0C640.3 0 594.7 0 548.8 0C503 0 457 0 411.2 0C365.3 0 319.7 0 274 0C228.3 0 182.7 0 137 0C91.3 0 45.7 0 22.8 0L0 0Z" fill="#ad25a4"></path><path d="M0 45L22.8 44.7C45.7 44.3 91.3 43.7 137 44.2C182.7 44.7 228.3 46.3 274 48.2C319.7 50 365.3 52 411.2 56.2C457 60.3 503 66.7 548.8 67.5C594.7 68.3 640.3 63.7 686 62.3C731.7 61 777.3 63 823 62.3C868.7 61.7 914.3 58.3 937.2 56.7L960 55L960 0L937.2 0C914.3 0 868.7 0 823 0C777.3 0 731.7 0 686 0C640.3 0 594.7 0 548.8 0C503 0 457 0 411.2 0C365.3 0 319.7 0 274 0C228.3 0 182.7 0 137 0C91.3 0 45.7 0 22.8 0L0 0Z" fill="#cf36c5"></path><path d="M0 31L22.8 34.2C45.7 37.3 91.3 43.7 137 44.7C182.7 45.7 228.3 41.3 274 41.7C319.7 42 365.3 47 411.2 48.7C457 50.3 503 48.7 548.8 46C594.7 43.3 640.3 39.7 686 38.2C731.7 36.7 777.3 37.3 823 39.2C868.7 41 914.3 44 937.2 45.5L960 47L960 0L937.2 0C914.3 0 868.7 0 823 0C777.3 0 731.7 0 686 0C640.3 0 594.7 0 548.8 0C503 0 457 0 411.2 0C365.3 0 319.7 0 274 0C228.3 0 182.7 0 137 0C91.3 0 45.7 0 22.8 0L0 0Z" fill="#f348e8"></path></svg>