<svg id="visual" viewBox="0 0 960 540" width="960" height="540" xmlns="http://www.w3.org/2000/svg" xmlns:xlink="http://www.w3.org/1999/xlink" version="1.1"><path d="M0 132L22.8 137.2C45.7 142.3 91.3 152.7 137 156C182.7 159.3 228.3 155.7 274 150C319.7 144.3 365.3 136.7 411.2 135.2C457 133.7 503 138.3 548.8 145.3C594.7 152.3 640.3 161.7 686 157C731.7 152.3 777.3 133.7 823 130.3C868.7 127 914.3 139 937.2 145L960 151L960 0L937.2 0C914.3 0 868.7 0 823 0C777.3 0 731.7 0 686 0C640.3 0 594.7 0 548.8 0C503 0 457 0 411.2 0C365.3 0 319.7 0 274 0C228.3 0 182.7 0 137 0C91.3 0 45.7 0 22.8 0L0 0Z" fill="#363434"></path><path d="M0 144L22.8 141.5C45.7 139 91.3 134 137 127.8C182.7 121.7 228.3 114.3 274 108.5C319.7 102.7 365.3 98.3 411.2 103.3C457 108.3 503 122.7 548.8 127.2C594.7 131.7 640.3 126.3 686 120.5C731.7 114.7 777.3 108.3 823 104C868.7 99.7 914.3 97.3 937.2 96.2L960 95L960 0L937.2 0C914.3 0 868.7 0 823 0C777.3 0 731.7 0 686 0C640.3 0 594.7 0 548.8 0C503 0 457 0 411.2 0C365.3 0 319.7 0 274 0C228.3 0 182.7 0 137 0C91.3 0 45.7 0 22.8 0L0 0Z" fill="#553335"></path><path d="M0 67L22.8 67.3C45.7 67.7 91.3 68.3 137 74.3C182.7 80.3 228.3 91.7 274 93.7C319.7 95.7 365.3 88.3 411.2 88C457 87.7 503 94.3 548.8 92C594.7 89.7 640.3 78.3 686 74.3C731.7 70.3 777.3 73.7 823 80.7C868.7 87.7 914.3 98.3 937.2 103.7L960 109L960 0L937.2 0C914.3 0 868.7 0 823 0C777.3 0 731.7 0 686 0C640.3 0 594.7 0 548.8 0C503 0 457 0 411.2 0C365.3 0 319.7 0 274 0C228.3 0 182.7 0 137 0C91.3 0 45.7 0 22.8 0L0 0Z" fill="#712f38"></path><path d="M0 56L22.8 53.7C45.7 51.3 91.3 46.7 137 47C182.7 47.3 228.3 52.7 274 56.8C319.7 61 365.3 64 411.2 62.3C457 60.7 503 54.3 548.8 49.8C594.7 45.3 640.3 42.7 686 46.3C731.7 50 777.3 60 823 60.7C868.7 61.3 914.3 52.7 937.2 48.3L960 44L960 0L937.2 0C914.3 0 868.7 0 823 0C777.3 0 731.7 0 686 0C640.3 0 594.7 0 548.8 0C503 0 457 0 411.2 0C365.3 0 319.7 0 274 0C228.3 0 182.7 0 137 0C91.3 0 45.7 0 22.8 0L0 0Z" fill="#8d243c"></path><path d="M0 52L22.8 46.7C45.7 41.3 91.3 30.7 137 28C182.7 25.3 228.3 30.7 274 31.8C319.7 33 365.3 30 411.2 29.8C457 29.7 503 32.3 548.8 32.2C594.7 32 640.3 29 686 28.7C731.7 28.3 777.3 30.7 823 32.5C868.7 34.3 914.3 35.7 937.2 36.3L960 37L960 0L937.2 0C914.3 0 868.7 0 823 0C777.3 0 731.7 0 686 0C640.3 0 594.7 0 548.8 0C503 0 457 0 411.2 0C365.3 0 319.7 0 274 0C228.3 0 182.7 0 137 0C91.3 0 45.7 0 22.8 0L0 0Z" fill="#a90541"></path></svg>