<svg id="visual" viewBox="0 0 960 540" width="960" height="540" xmlns="http://www.w3.org/2000/svg" xmlns:xlink="http://www.w3.org/1999/xlink" version="1.1"><path d="M0 164L22.8 162.5C45.7 161 91.3 158 137 149.5C182.7 141 228.3 127 274 120.8C319.7 114.7 365.3 116.3 411.2 121.7C457 127 503 136 548.8 137.2C594.7 138.3 640.3 131.7 686 133.8C731.7 136 777.3 147 823 154.5C868.7 162 914.3 166 937.2 168L960 170L960 0L937.2 0C914.3 0 868.7 0 823 0C777.3 0 731.7 0 686 0C640.3 0 594.7 0 548.8 0C503 0 457 0 411.2 0C365.3 0 319.7 0 274 0C228.3 0 182.7 0 137 0C91.3 0 45.7 0 22.8 0L0 0Z" fill="#e10303"></path><path d="M0 139L22.8 139C45.7 139 91.3 139 137 139.7C182.7 140.3 228.3 141.7 274 141.8C319.7 142 365.3 141 411.2 139.2C457 137.3 503 134.7 548.8 129.2C594.7 123.7 640.3 115.3 686 112.7C731.7 110 777.3 113 823 111.3C868.7 109.7 914.3 103.3 937.2 100.2L960 97L960 0L937.2 0C914.3 0 868.7 0 823 0C777.3 0 731.7 0 686 0C640.3 0 594.7 0 548.8 0C503 0 457 0 411.2 0C365.3 0 319.7 0 274 0C228.3 0 182.7 0 137 0C91.3 0 45.7 0 22.8 0L0 0Z" fill="#e95515"></path><path d="M0 102L22.8 103.5C45.7 105 91.3 108 137 110.2C182.7 112.3 228.3 113.7 274 107.8C319.7 102 365.3 89 411.2 81.7C457 74.3 503 72.7 548.8 75.5C594.7 78.3 640.3 85.7 686 90.3C731.7 95 777.3 97 823 97.2C868.7 97.3 914.3 95.7 937.2 94.8L960 94L960 0L937.2 0C914.3 0 868.7 0 823 0C777.3 0 731.7 0 686 0C640.3 0 594.7 0 548.8 0C503 0 457 0 411.2 0C365.3 0 319.7 0 274 0C228.3 0 182.7 0 137 0C91.3 0 45.7 0 22.8 0L0 0Z" fill="#f17f32"></path><path d="M0 46L22.8 49.5C45.7 53 91.3 60 137 64.7C182.7 69.3 228.3 71.7 274 74.2C319.7 76.7 365.3 79.3 411.2 75.7C457 72 503 62 548.8 58.8C594.7 55.7 640.3 59.3 686 61.7C731.7 64 777.3 65 823 63.8C868.7 62.7 914.3 59.3 937.2 57.7L960 56L960 0L937.2 0C914.3 0 868.7 0 823 0C777.3 0 731.7 0 686 0C640.3 0 594.7 0 548.8 0C503 0 457 0 411.2 0C365.3 0 319.7 0 274 0C228.3 0 182.7 0 137 0C91.3 0 45.7 0 22.8 0L0 0Z" fill="#f8a255"></path><path d="M0 45L22.8 43.7C45.7 42.3 91.3 39.7 137 38.7C182.7 37.7 228.3 38.3 274 37.2C319.7 36 365.3 33 411.2 33C457 33 503 36 548.8 35.8C594.7 35.7 640.3 32.3 686 34C731.7 35.7 777.3 42.3 823 41.3C868.7 40.3 914.3 31.7 937.2 27.3L960 23L960 0L937.2 0C914.3 0 868.7 0 823 0C777.3 0 731.7 0 686 0C640.3 0 594.7 0 548.8 0C503 0 457 0 411.2 0C365.3 0 319.7 0 274 0C228.3 0 182.7 0 137 0C91.3 0 45.7 0 22.8 0L0 0Z" fill="#ffc37c"></path></svg>