<svg id="visual" viewBox="0 0 960 540" width="960" height="540" xmlns="http://www.w3.org/2000/svg" xmlns:xlink="http://www.w3.org/1999/xlink" version="1.1"><path d="M0 113L22.8 122C45.7 131 91.3 149 137 153.2C182.7 157.3 228.3 147.7 274 138.3C319.7 129 365.3 120 411.2 122.7C457 125.3 503 139.7 548.8 146.3C594.7 153 640.3 152 686 154.8C731.7 157.7 777.3 164.3 823 161.7C868.7 159 914.3 147 937.2 141L960 135L960 0L937.2 0C914.3 0 868.7 0 823 0C777.3 0 731.7 0 686 0C640.3 0 594.7 0 548.8 0C503 0 457 0 411.2 0C365.3 0 319.7 0 274 0C228.3 0 182.7 0 137 0C91.3 0 45.7 0 22.8 0L0 0Z" fill="#34006b"></path><path d="M0 144L22.8 134.8C45.7 125.7 91.3 107.3 137 97.7C182.7 88 228.3 87 274 96.2C319.7 105.3 365.3 124.7 411.2 132.3C457 140 503 136 548.8 127C594.7 118 640.3 104 686 106.2C731.7 108.3 777.3 126.7 823 129.3C868.7 132 914.3 119 937.2 112.5L960 106L960 0L937.2 0C914.3 0 868.7 0 823 0C777.3 0 731.7 0 686 0C640.3 0 594.7 0 548.8 0C503 0 457 0 411.2 0C365.3 0 319.7 0 274 0C228.3 0 182.7 0 137 0C91.3 0 45.7 0 22.8 0L0 0Z" fill="#4d1e8e"></path><path d="M0 90L22.8 91.8C45.7 93.7 91.3 97.3 137 99.2C182.7 101 228.3 101 274 96.2C319.7 91.3 365.3 81.7 411.2 79.3C457 77 503 82 548.8 83.7C594.7 85.3 640.3 83.7 686 86.8C731.7 90 777.3 98 823 95.7C868.7 93.3 914.3 80.7 937.2 74.3L960 68L960 0L937.2 0C914.3 0 868.7 0 823 0C777.3 0 731.7 0 686 0C640.3 0 594.7 0 548.8 0C503 0 457 0 411.2 0C365.3 0 319.7 0 274 0C228.3 0 182.7 0 137 0C91.3 0 45.7 0 22.8 0L0 0Z" fill="#6739b2"></path><path d="M0 82L22.8 78.3C45.7 74.7 91.3 67.3 137 65.2C182.7 63 228.3 66 274 66.2C319.7 66.3 365.3 63.7 411.2 60.5C457 57.3 503 53.7 548.8 56.5C594.7 59.3 640.3 68.7 686 74C731.7 79.3 777.3 80.7 823 76.7C868.7 72.7 914.3 63.3 937.2 58.7L960 54L960 0L937.2 0C914.3 0 868.7 0 823 0C777.3 0 731.7 0 686 0C640.3 0 594.7 0 548.8 0C503 0 457 0 411.2 0C365.3 0 319.7 0 274 0C228.3 0 182.7 0 137 0C91.3 0 45.7 0 22.8 0L0 0Z" fill="#8054d8"></path><path d="M0 20L22.8 23.2C45.7 26.3 91.3 32.7 137 37.8C182.7 43 228.3 47 274 48.3C319.7 49.7 365.3 48.3 411.2 45.5C457 42.7 503 38.3 548.8 34.3C594.7 30.3 640.3 26.7 686 28.8C731.7 31 777.3 39 823 38.7C868.7 38.3 914.3 29.7 937.2 25.3L960 21L960 0L937.2 0C914.3 0 868.7 0 823 0C777.3 0 731.7 0 686 0C640.3 0 594.7 0 548.8 0C503 0 457 0 411.2 0C365.3 0 319.7 0 274 0C228.3 0 182.7 0 137 0C91.3 0 45.7 0 22.8 0L0 0Z" fill="#9a6fff"></path></svg>