<svg id="visual" viewBox="0 0 960 540" width="960" height="540" xmlns="http://www.w3.org/2000/svg" xmlns:xlink="http://www.w3.org/1999/xlink" version="1.1"><path d="M0 155L22.8 148.7C45.7 142.3 91.3 129.7 137 129C182.7 128.3 228.3 139.7 274 140.8C319.7 142 365.3 133 411.2 135.8C457 138.7 503 153.3 548.8 159.8C594.7 166.3 640.3 164.7 686 158.8C731.7 153 777.3 143 823 137.7C868.7 132.3 914.3 131.7 937.2 131.3L960 131L960 0L937.2 0C914.3 0 868.7 0 823 0C777.3 0 731.7 0 686 0C640.3 0 594.7 0 548.8 0C503 0 457 0 411.2 0C365.3 0 319.7 0 274 0C228.3 0 182.7 0 137 0C91.3 0 45.7 0 22.8 0L0 0Z" fill="#6b0000"></path><path d="M0 134L22.8 127.5C45.7 121 91.3 108 137 101C182.7 94 228.3 93 274 92.7C319.7 92.3 365.3 92.7 411.2 97.2C457 101.7 503 110.3 548.8 110.7C594.7 111 640.3 103 686 104.3C731.7 105.7 777.3 116.3 823 119.7C868.7 123 914.3 119 937.2 117L960 115L960 0L937.2 0C914.3 0 868.7 0 823 0C777.3 0 731.7 0 686 0C640.3 0 594.7 0 548.8 0C503 0 457 0 411.2 0C365.3 0 319.7 0 274 0C228.3 0 182.7 0 137 0C91.3 0 45.7 0 22.8 0L0 0Z" fill="#86050e"></path><path d="M0 62L22.8 67.3C45.7 72.7 91.3 83.3 137 83.5C182.7 83.7 228.3 73.3 274 68.3C319.7 63.3 365.3 63.7 411.2 63.8C457 64 503 64 548.8 67.2C594.7 70.3 640.3 76.7 686 78.8C731.7 81 777.3 79 823 75.7C868.7 72.3 914.3 67.7 937.2 65.3L960 63L960 0L937.2 0C914.3 0 868.7 0 823 0C777.3 0 731.7 0 686 0C640.3 0 594.7 0 548.8 0C503 0 457 0 411.2 0C365.3 0 319.7 0 274 0C228.3 0 182.7 0 137 0C91.3 0 45.7 0 22.8 0L0 0Z" fill="#a30b18"></path><path d="M0 48L22.8 48.2C45.7 48.3 91.3 48.7 137 49C182.7 49.3 228.3 49.7 274 48.7C319.7 47.7 365.3 45.3 411.2 49C457 52.7 503 62.3 548.8 66.8C594.7 71.3 640.3 70.7 686 66.8C731.7 63 777.3 56 823 53.5C868.7 51 914.3 53 937.2 54L960 55L960 0L937.2 0C914.3 0 868.7 0 823 0C777.3 0 731.7 0 686 0C640.3 0 594.7 0 548.8 0C503 0 457 0 411.2 0C365.3 0 319.7 0 274 0C228.3 0 182.7 0 137 0C91.3 0 45.7 0 22.8 0L0 0Z" fill="#c11123"></path><path d="M0 27L22.8 25.8C45.7 24.7 91.3 22.3 137 25.8C182.7 29.3 228.3 38.7 274 38.7C319.7 38.7 365.3 29.3 411.2 30C457 30.7 503 41.3 548.8 42C594.7 42.7 640.3 33.3 686 28.3C731.7 23.3 777.3 22.7 823 22C868.7 21.3 914.3 20.7 937.2 20.3L960 20L960 0L937.2 0C914.3 0 868.7 0 823 0C777.3 0 731.7 0 686 0C640.3 0 594.7 0 548.8 0C503 0 457 0 411.2 0C365.3 0 319.7 0 274 0C228.3 0 182.7 0 137 0C91.3 0 45.7 0 22.8 0L0 0Z" fill="#e0172f"></path></svg>