<svg id="visual" viewBox="0 0 960 540" width="960" height="540" xmlns="http://www.w3.org/2000/svg" xmlns:xlink="http://www.w3.org/1999/xlink" version="1.1"><path d="M0 173L22.8 167.3C45.7 161.7 91.3 150.3 137 149.5C182.7 148.7 228.3 158.3 274 163.8C319.7 169.3 365.3 170.7 411.2 171C457 171.3 503 170.7 548.8 166.8C594.7 163 640.3 156 686 147.5C731.7 139 777.3 129 823 126.2C868.7 123.3 914.3 127.7 937.2 129.8L960 132L960 0L937.2 0C914.3 0 868.7 0 823 0C777.3 0 731.7 0 686 0C640.3 0 594.7 0 548.8 0C503 0 457 0 411.2 0C365.3 0 319.7 0 274 0C228.3 0 182.7 0 137 0C91.3 0 45.7 0 22.8 0L0 0Z" fill="#b70a0a"></path><path d="M0 93L22.8 100.2C45.7 107.3 91.3 121.7 137 121.8C182.7 122 228.3 108 274 106.7C319.7 105.3 365.3 116.7 411.2 123.7C457 130.7 503 133.3 548.8 130.3C594.7 127.3 640.3 118.7 686 112.5C731.7 106.3 777.3 102.7 823 105.7C868.7 108.7 914.3 118.3 937.2 123.2L960 128L960 0L937.2 0C914.3 0 868.7 0 823 0C777.3 0 731.7 0 686 0C640.3 0 594.7 0 548.8 0C503 0 457 0 411.2 0C365.3 0 319.7 0 274 0C228.3 0 182.7 0 137 0C91.3 0 45.7 0 22.8 0L0 0Z" fill="#c92d19"></path><path d="M0 111L22.8 107.8C45.7 104.7 91.3 98.3 137 92.5C182.7 86.7 228.3 81.3 274 81.3C319.7 81.3 365.3 86.7 411.2 93.3C457 100 503 108 548.8 105.7C594.7 103.3 640.3 90.7 686 83.8C731.7 77 777.3 76 823 79.8C868.7 83.7 914.3 92.3 937.2 96.7L960 101L960 0L937.2 0C914.3 0 868.7 0 823 0C777.3 0 731.7 0 686 0C640.3 0 594.7 0 548.8 0C503 0 457 0 411.2 0C365.3 0 319.7 0 274 0C228.3 0 182.7 0 137 0C91.3 0 45.7 0 22.8 0L0 0Z" fill="#db4428"></path><path d="M0 70L22.8 70.2C45.7 70.3 91.3 70.7 137 66.2C182.7 61.7 228.3 52.3 274 50.3C319.7 48.3 365.3 53.7 411.2 54.7C457 55.7 503 52.3 548.8 54.8C594.7 57.3 640.3 65.7 686 68C731.7 70.3 777.3 66.7 823 65.3C868.7 64 914.3 65 937.2 65.5L960 66L960 0L937.2 0C914.3 0 868.7 0 823 0C777.3 0 731.7 0 686 0C640.3 0 594.7 0 548.8 0C503 0 457 0 411.2 0C365.3 0 319.7 0 274 0C228.3 0 182.7 0 137 0C91.3 0 45.7 0 22.8 0L0 0Z" fill="#ed5937"></path><path d="M0 23L22.8 23.2C45.7 23.3 91.3 23.7 137 26.7C182.7 29.7 228.3 35.3 274 37.3C319.7 39.3 365.3 37.7 411.2 36C457 34.3 503 32.7 548.8 29.8C594.7 27 640.3 23 686 25.5C731.7 28 777.3 37 823 37.8C868.7 38.7 914.3 31.3 937.2 27.7L960 24L960 0L937.2 0C914.3 0 868.7 0 823 0C777.3 0 731.7 0 686 0C640.3 0 594.7 0 548.8 0C503 0 457 0 411.2 0C365.3 0 319.7 0 274 0C228.3 0 182.7 0 137 0C91.3 0 45.7 0 22.8 0L0 0Z" fill="#ff6d46"></path></svg>