<svg id="visual" viewBox="0 0 900 450" width="900" height="450" xmlns="http://www.w3.org/2000/svg" xmlns:xlink="http://www.w3.org/1999/xlink" version="1.1"><path d="M0 159L21.5 157C43 155 86 151 128.8 151.7C171.7 152.3 214.3 157.7 257.2 156.3C300 155 343 147 385.8 138.8C428.7 130.7 471.3 122.3 514.2 122.7C557 123 600 132 642.8 134.2C685.7 136.3 728.3 131.7 771.2 134.3C814 137 857 147 878.5 152L900 157L900 0L878.5 0C857 0 814 0 771.2 0C728.3 0 685.7 0 642.8 0C600 0 557 0 514.2 0C471.3 0 428.7 0 385.8 0C343 0 300 0 257.2 0C214.3 0 171.7 0 128.8 0C86 0 43 0 21.5 0L0 0Z" fill="#6e0933"></path><path d="M0 128L21.5 121.7C43 115.3 86 102.7 128.8 101.8C171.7 101 214.3 112 257.2 122C300 132 343 141 385.8 144.7C428.7 148.3 471.3 146.7 514.2 141.8C557 137 600 129 642.8 121C685.7 113 728.3 105 771.2 103.8C814 102.7 857 108.3 878.5 111.2L900 114L900 0L878.5 0C857 0 814 0 771.2 0C728.3 0 685.7 0 642.8 0C600 0 557 0 514.2 0C471.3 0 428.7 0 385.8 0C343 0 300 0 257.2 0C214.3 0 171.7 0 128.8 0C86 0 43 0 21.5 0L0 0Z" fill="#880a3c"></path><path d="M0 76L21.5 79.2C43 82.3 86 88.7 128.8 94.7C171.7 100.7 214.3 106.3 257.2 104C300 101.7 343 91.3 385.8 83.5C428.7 75.7 471.3 70.3 514.2 69.5C557 68.7 600 72.3 642.8 77.8C685.7 83.3 728.3 90.7 771.2 94.7C814 98.7 857 99.3 878.5 99.7L900 100L900 0L878.5 0C857 0 814 0 771.2 0C728.3 0 685.7 0 642.8 0C600 0 557 0 514.2 0C471.3 0 428.7 0 385.8 0C343 0 300 0 257.2 0C214.3 0 171.7 0 128.8 0C86 0 43 0 21.5 0L0 0Z" fill="#a30b43"></path><path d="M0 55L21.5 55.5C43 56 86 57 128.8 61.8C171.7 66.7 214.3 75.3 257.2 75.8C300 76.3 343 68.7 385.8 65.5C428.7 62.3 471.3 63.7 514.2 65.8C557 68 600 71 642.8 74C685.7 77 728.3 80 771.2 80.3C814 80.7 857 78.3 878.5 77.2L900 76L900 0L878.5 0C857 0 814 0 771.2 0C728.3 0 685.7 0 642.8 0C600 0 557 0 514.2 0C471.3 0 428.7 0 385.8 0C343 0 300 0 257.2 0C214.3 0 171.7 0 128.8 0C86 0 43 0 21.5 0L0 0Z" fill="#be0d49"></path><path d="M0 28L21.5 28.3C43 28.7 86 29.3 128.8 29.8C171.7 30.3 214.3 30.7 257.2 33.7C300 36.7 343 42.3 385.8 43.8C428.7 45.3 471.3 42.7 514.2 38.3C557 34 600 28 642.8 25.8C685.7 23.7 728.3 25.3 771.2 27.7C814 30 857 33 878.5 34.5L900 36L900 0L878.5 0C857 0 814 0 771.2 0C728.3 0 685.7 0 642.8 0C600 0 557 0 514.2 0C471.3 0 428.7 0 385.8 0C343 0 300 0 257.2 0C214.3 0 171.7 0 128.8 0C86 0 43 0 21.5 0L0 0Z" fill="#da124e"></path></svg>