<svg id="visual" viewBox="0 0 960 540" width="960" height="540" xmlns="http://www.w3.org/2000/svg" xmlns:xlink="http://www.w3.org/1999/xlink" version="1.1"><path d="M0 170L22.8 172C45.7 174 91.3 178 137 175.3C182.7 172.7 228.3 163.3 274 158.8C319.7 154.3 365.3 154.7 411.2 156.3C457 158 503 161 548.8 158.7C594.7 156.3 640.3 148.7 686 158.3C731.7 168 777.3 195 823 194.2C868.7 193.3 914.3 164.7 937.2 150.3L960 136L960 0L937.2 0C914.3 0 868.7 0 823 0C777.3 0 731.7 0 686 0C640.3 0 594.7 0 548.8 0C503 0 457 0 411.2 0C365.3 0 319.7 0 274 0C228.3 0 182.7 0 137 0C91.3 0 45.7 0 22.8 0L0 0Z" fill="#191919"></path><path d="M0 144L22.8 144.5C45.7 145 91.3 146 137 147.3C182.7 148.7 228.3 150.3 274 150.5C319.7 150.7 365.3 149.3 411.2 144.2C457 139 503 130 548.8 124C594.7 118 640.3 115 686 116C731.7 117 777.3 122 823 125.7C868.7 129.3 914.3 131.7 937.2 132.8L960 134L960 0L937.2 0C914.3 0 868.7 0 823 0C777.3 0 731.7 0 686 0C640.3 0 594.7 0 548.8 0C503 0 457 0 411.2 0C365.3 0 319.7 0 274 0C228.3 0 182.7 0 137 0C91.3 0 45.7 0 22.8 0L0 0Z" fill="#242424"></path><path d="M0 138L22.8 135.7C45.7 133.3 91.3 128.7 137 120.5C182.7 112.3 228.3 100.7 274 95.2C319.7 89.7 365.3 90.3 411.2 99.2C457 108 503 125 548.8 133.7C594.7 142.3 640.3 142.7 686 133C731.7 123.3 777.3 103.7 823 101.8C868.7 100 914.3 116 937.2 124L960 132L960 0L937.2 0C914.3 0 868.7 0 823 0C777.3 0 731.7 0 686 0C640.3 0 594.7 0 548.8 0C503 0 457 0 411.2 0C365.3 0 319.7 0 274 0C228.3 0 182.7 0 137 0C91.3 0 45.7 0 22.8 0L0 0Z" fill="#303030"></path><path d="M0 97L22.8 91C45.7 85 91.3 73 137 70.2C182.7 67.3 228.3 73.7 274 80.5C319.7 87.3 365.3 94.7 411.2 96C457 97.3 503 92.7 548.8 85.2C594.7 77.7 640.3 67.3 686 66C731.7 64.7 777.3 72.3 823 76.7C868.7 81 914.3 82 937.2 82.5L960 83L960 0L937.2 0C914.3 0 868.7 0 823 0C777.3 0 731.7 0 686 0C640.3 0 594.7 0 548.8 0C503 0 457 0 411.2 0C365.3 0 319.7 0 274 0C228.3 0 182.7 0 137 0C91.3 0 45.7 0 22.8 0L0 0Z" fill="#3c3c3c"></path><path d="M0 59L22.8 59.2C45.7 59.3 91.3 59.7 137 54.7C182.7 49.7 228.3 39.3 274 34C319.7 28.7 365.3 28.3 411.2 31.8C457 35.3 503 42.7 548.8 42.2C594.7 41.7 640.3 33.3 686 31.5C731.7 29.7 777.3 34.3 823 39.3C868.7 44.3 914.3 49.7 937.2 52.3L960 55L960 0L937.2 0C914.3 0 868.7 0 823 0C777.3 0 731.7 0 686 0C640.3 0 594.7 0 548.8 0C503 0 457 0 411.2 0C365.3 0 319.7 0 274 0C228.3 0 182.7 0 137 0C91.3 0 45.7 0 22.8 0L0 0Z" fill="#484848"></path></svg>