<svg id="visual" viewBox="0 0 960 540" width="960" height="540" xmlns="http://www.w3.org/2000/svg" xmlns:xlink="http://www.w3.org/1999/xlink" version="1.1"><path d="M0 160L22.8 154.2C45.7 148.3 91.3 136.7 137 128.7C182.7 120.7 228.3 116.3 274 124.8C319.7 133.3 365.3 154.7 411.2 163C457 171.3 503 166.7 548.8 160.2C594.7 153.7 640.3 145.3 686 145.2C731.7 145 777.3 153 823 153.8C868.7 154.7 914.3 148.3 937.2 145.2L960 142L960 0L937.2 0C914.3 0 868.7 0 823 0C777.3 0 731.7 0 686 0C640.3 0 594.7 0 548.8 0C503 0 457 0 411.2 0C365.3 0 319.7 0 274 0C228.3 0 182.7 0 137 0C91.3 0 45.7 0 22.8 0L0 0Z" fill="#2478c7"></path><path d="M0 148L22.8 138.8C45.7 129.7 91.3 111.3 137 104.5C182.7 97.7 228.3 102.3 274 105.3C319.7 108.3 365.3 109.7 411.2 108.8C457 108 503 105 548.8 105C594.7 105 640.3 108 686 113.7C731.7 119.3 777.3 127.7 823 131.7C868.7 135.7 914.3 135.3 937.2 135.2L960 135L960 0L937.2 0C914.3 0 868.7 0 823 0C777.3 0 731.7 0 686 0C640.3 0 594.7 0 548.8 0C503 0 457 0 411.2 0C365.3 0 319.7 0 274 0C228.3 0 182.7 0 137 0C91.3 0 45.7 0 22.8 0L0 0Z" fill="#807cc8"></path><path d="M0 124L22.8 119.3C45.7 114.7 91.3 105.3 137 103.8C182.7 102.3 228.3 108.7 274 105.3C319.7 102 365.3 89 411.2 86.7C457 84.3 503 92.7 548.8 97.2C594.7 101.7 640.3 102.3 686 105.8C731.7 109.3 777.3 115.7 823 112.8C868.7 110 914.3 98 937.2 92L960 86L960 0L937.2 0C914.3 0 868.7 0 823 0C777.3 0 731.7 0 686 0C640.3 0 594.7 0 548.8 0C503 0 457 0 411.2 0C365.3 0 319.7 0 274 0C228.3 0 182.7 0 137 0C91.3 0 45.7 0 22.8 0L0 0Z" fill="#b281c1"></path><path d="M0 79L22.8 79.3C45.7 79.7 91.3 80.3 137 80.2C182.7 80 228.3 79 274 81C319.7 83 365.3 88 411.2 84C457 80 503 67 548.8 65C594.7 63 640.3 72 686 75.7C731.7 79.3 777.3 77.7 823 78.7C868.7 79.7 914.3 83.3 937.2 85.2L960 87L960 0L937.2 0C914.3 0 868.7 0 823 0C777.3 0 731.7 0 686 0C640.3 0 594.7 0 548.8 0C503 0 457 0 411.2 0C365.3 0 319.7 0 274 0C228.3 0 182.7 0 137 0C91.3 0 45.7 0 22.8 0L0 0Z" fill="#d38cb7"></path><path d="M0 65L22.8 65.7C45.7 66.3 91.3 67.7 137 64.5C182.7 61.3 228.3 53.7 274 51.8C319.7 50 365.3 54 411.2 52C457 50 503 42 548.8 38.5C594.7 35 640.3 36 686 39.2C731.7 42.3 777.3 47.7 823 51.2C868.7 54.7 914.3 56.3 937.2 57.2L960 58L960 0L937.2 0C914.3 0 868.7 0 823 0C777.3 0 731.7 0 686 0C640.3 0 594.7 0 548.8 0C503 0 457 0 411.2 0C365.3 0 319.7 0 274 0C228.3 0 182.7 0 137 0C91.3 0 45.7 0 22.8 0L0 0Z" fill="#e89daf"></path><path d="M0 35L22.8 35.3C45.7 35.7 91.3 36.3 137 35.8C182.7 35.3 228.3 33.7 274 30.8C319.7 28 365.3 24 411.2 26.2C457 28.3 503 36.7 548.8 40.3C594.7 44 640.3 43 686 41.5C731.7 40 777.3 38 823 35.7C868.7 33.3 914.3 30.7 937.2 29.3L960 28L960 0L937.2 0C914.3 0 868.7 0 823 0C777.3 0 731.7 0 686 0C640.3 0 594.7 0 548.8 0C503 0 457 0 411.2 0C365.3 0 319.7 0 274 0C228.3 0 182.7 0 137 0C91.3 0 45.7 0 22.8 0L0 0Z" fill="#f3b1ad"></path></svg>