<svg id="visual" viewBox="0 0 900 450" width="900" height="450" xmlns="http://www.w3.org/2000/svg" xmlns:xlink="http://www.w3.org/1999/xlink" version="1.1"><rect x="0" y="0" width="900" height="450" fill="#eb3989"></rect><path d="M0 296L129 331L257 264L386 327L514 344L643 241L771 312L900 350L900 0L771 0L643 0L514 0L386 0L257 0L129 0L0 0Z" fill="#be0045"></path><path d="M0 250L129 287L257 195L386 302L514 203L643 241L771 218L900 303L900 0L771 0L643 0L514 0L386 0L257 0L129 0L0 0Z" fill="#a3013a"></path><path d="M0 233L129 237L257 231L386 133L514 180L643 146L771 172L900 237L900 0L771 0L643 0L514 0L386 0L257 0L129 0L0 0Z" fill="#88022f"></path><path d="M0 145L129 173L257 148L386 118L514 165L643 148L771 109L900 143L900 0L771 0L643 0L514 0L386 0L257 0L129 0L0 0Z" fill="#6e0225"></path><path d="M0 99L129 73L257 88L386 59L514 79L643 108L771 66L900 100L900 0L771 0L643 0L514 0L386 0L257 0L129 0L0 0Z" fill="#56021b"></path></svg>