<svg id="visual" viewBox="0 0 1200 450" width="1200" height="450" xmlns="http://www.w3.org/2000/svg" xmlns:xlink="http://www.w3.org/1999/xlink" version="1.1"><g stroke-width="1" stroke-linejoin="bevel"><path d="M557.3 228L678.7 323.5L645.7 186Z" fill="#c162ce" stroke="#c162ce"></path><path d="M557.3 228L528.3 334.5L678.7 323.5Z" fill="#c162ce" stroke="#c162ce"></path><path d="M678.7 323.5L794 205L645.7 186Z" fill="#a735a6" stroke="#a735a6"></path><path d="M773 111.5L696.7 78.5L645.7 186Z" fill="#b44cba" stroke="#b44cba"></path><path d="M645.7 186L497.3 102.5L557.3 228Z" fill="#9e2399" stroke="#9e2399"></path><path d="M528.3 334.5L690.7 450L678.7 323.5Z" fill="#b44cba" stroke="#b44cba"></path><path d="M678.7 323.5L797 372.5L794 205Z" fill="#9e2399" stroke="#9e2399"></path><path d="M690.7 450L797 372.5L678.7 323.5Z" fill="#ac3dac" stroke="#ac3dac"></path><path d="M696.7 78.5L497.3 102.5L645.7 186Z" fill="#9a1892" stroke="#9a1892"></path><path d="M557.3 228L392 322.5L528.3 334.5Z" fill="#c569d5" stroke="#c569d5"></path><path d="M794 205L773 111.5L645.7 186Z" fill="#c569d5" stroke="#c569d5"></path><path d="M395 450L525.3 450L528.3 334.5Z" fill="#9a1892" stroke="#9a1892"></path><path d="M528.3 334.5L525.3 450L690.7 450Z" fill="#ac3dac" stroke="#ac3dac"></path><path d="M366 202L392 322.5L557.3 228Z" fill="#c569d5" stroke="#c569d5"></path><path d="M690.7 450L804 450L797 372.5Z" fill="#bd5bc7" stroke="#bd5bc7"></path><path d="M797 372.5L923.3 230L794 205Z" fill="#a32d9f" stroke="#a32d9f"></path><path d="M497.3 102.5L366 202L557.3 228Z" fill="#c162ce" stroke="#c162ce"></path><path d="M696.7 78.5L557.3 0L497.3 102.5Z" fill="#9e2399" stroke="#9e2399"></path><path d="M497.3 102.5L398 109.5L366 202Z" fill="#b44cba" stroke="#b44cba"></path><path d="M703.7 0L557.3 0L696.7 78.5Z" fill="#ac3dac" stroke="#ac3dac"></path><path d="M781 0L703.7 0L696.7 78.5Z" fill="#b045b3" stroke="#b045b3"></path><path d="M369 0L398 109.5L497.3 102.5Z" fill="#b045b3" stroke="#b045b3"></path><path d="M967.3 327.5L923.3 230L797 372.5Z" fill="#bd5bc7" stroke="#bd5bc7"></path><path d="M794 205L916.3 99.5L773 111.5Z" fill="#b44cba" stroke="#b44cba"></path><path d="M773 111.5L781 0L696.7 78.5Z" fill="#b44cba" stroke="#b44cba"></path><path d="M298.7 373.5L395 450L392 322.5Z" fill="#b854c1" stroke="#b854c1"></path><path d="M392 322.5L395 450L528.3 334.5Z" fill="#ac3dac" stroke="#ac3dac"></path><path d="M916.3 99.5L781 0L773 111.5Z" fill="#a735a6" stroke="#a735a6"></path><path d="M923.3 230L916.3 99.5L794 205Z" fill="#b44cba" stroke="#b44cba"></path><path d="M804 450L918.3 450L797 372.5Z" fill="#a735a6" stroke="#a735a6"></path><path d="M918.3 450L967.3 327.5L797 372.5Z" fill="#b045b3" stroke="#b045b3"></path><path d="M923.3 230L1069.7 147.5L916.3 99.5Z" fill="#9e2399" stroke="#9e2399"></path><path d="M366 202L298.7 373.5L392 322.5Z" fill="#ac3dac" stroke="#ac3dac"></path><path d="M252.7 185L298.7 373.5L366 202Z" fill="#b045b3" stroke="#b045b3"></path><path d="M557.3 0L369 0L497.3 102.5Z" fill="#b44cba" stroke="#b44cba"></path><path d="M398 109.5L292.7 93.5L366 202Z" fill="#c162ce" stroke="#c162ce"></path><path d="M369 0L292.7 93.5L398 109.5Z" fill="#bd5bc7" stroke="#bd5bc7"></path><path d="M292.7 93.5L252.7 185L366 202Z" fill="#9a1892" stroke="#9a1892"></path><path d="M1056.7 0L913.3 0L916.3 99.5Z" fill="#bd5bc7" stroke="#bd5bc7"></path><path d="M916.3 99.5L913.3 0L781 0Z" fill="#bd5bc7" stroke="#bd5bc7"></path><path d="M120.3 369.5L265.7 450L298.7 373.5Z" fill="#b854c1" stroke="#b854c1"></path><path d="M298.7 373.5L265.7 450L395 450Z" fill="#ac3dac" stroke="#ac3dac"></path><path d="M918.3 450L1032.7 347.5L967.3 327.5Z" fill="#a735a6" stroke="#a735a6"></path><path d="M967.3 327.5L1079.7 198L923.3 230Z" fill="#a32d9f" stroke="#a32d9f"></path><path d="M121.3 104.5L125.3 221L252.7 185Z" fill="#b045b3" stroke="#b045b3"></path><path d="M369 0L296.7 0L292.7 93.5Z" fill="#a735a6" stroke="#a735a6"></path><path d="M1032.7 347.5L1079.7 198L967.3 327.5Z" fill="#bd5bc7" stroke="#bd5bc7"></path><path d="M1079.7 198L1069.7 147.5L923.3 230Z" fill="#ac3dac" stroke="#ac3dac"></path><path d="M1200 126.5L1056.7 0L1069.7 147.5Z" fill="#c162ce" stroke="#c162ce"></path><path d="M1069.7 147.5L1056.7 0L916.3 99.5Z" fill="#b045b3" stroke="#b045b3"></path><path d="M121.3 104.5L252.7 185L292.7 93.5Z" fill="#c162ce" stroke="#c162ce"></path><path d="M252.7 185L125.3 221L298.7 373.5Z" fill="#c569d5" stroke="#c569d5"></path><path d="M918.3 450L1097.7 450L1032.7 347.5Z" fill="#b44cba" stroke="#b44cba"></path><path d="M1200 330.5L1200 221L1079.7 198Z" fill="#a735a6" stroke="#a735a6"></path><path d="M125.3 221L120.3 369.5L298.7 373.5Z" fill="#a735a6" stroke="#a735a6"></path><path d="M296.7 0L121.3 104.5L292.7 93.5Z" fill="#a735a6" stroke="#a735a6"></path><path d="M0 351.5L103.3 450L120.3 369.5Z" fill="#9e2399" stroke="#9e2399"></path><path d="M0 262L120.3 369.5L125.3 221Z" fill="#9a1892" stroke="#9a1892"></path><path d="M120.3 369.5L103.3 450L265.7 450Z" fill="#b854c1" stroke="#b854c1"></path><path d="M1200 330.5L1079.7 198L1032.7 347.5Z" fill="#c162ce" stroke="#c162ce"></path><path d="M1079.7 198L1200 126.5L1069.7 147.5Z" fill="#b854c1" stroke="#b854c1"></path><path d="M1097.7 450L1200 330.5L1032.7 347.5Z" fill="#a735a6" stroke="#a735a6"></path><path d="M1200 221L1200 126.5L1079.7 198Z" fill="#bd5bc7" stroke="#bd5bc7"></path><path d="M296.7 0L98.3 0L121.3 104.5Z" fill="#b045b3" stroke="#b045b3"></path><path d="M0 74.5L0 262L125.3 221Z" fill="#ac3dac" stroke="#ac3dac"></path><path d="M1097.7 450L1200 450L1200 330.5Z" fill="#b44cba" stroke="#b44cba"></path><path d="M0 74.5L125.3 221L121.3 104.5Z" fill="#ac3dac" stroke="#ac3dac"></path><path d="M1200 126.5L1200 0L1056.7 0Z" fill="#ac3dac" stroke="#ac3dac"></path><path d="M0 262L0 351.5L120.3 369.5Z" fill="#ac3dac" stroke="#ac3dac"></path><path d="M0 351.5L0 450L103.3 450Z" fill="#9e2399" stroke="#9e2399"></path><path d="M98.3 0L0 74.5L121.3 104.5Z" fill="#c569d5" stroke="#c569d5"></path><path d="M98.3 0L0 0L0 74.5Z" fill="#ac3dac" stroke="#ac3dac"></path></g></svg>